<svg xmlns="http://www.w3.org/2000/svg" xmlns:xlink="http://www.w3.org/1999/xlink" width="1274.416" height="544" viewBox="0 0 1274.416 544">
  <defs>
    <linearGradient id="linear-gradient" x1="0.5" x2="0.5" y2="1" gradientUnits="objectBoundingBox">
      <stop offset="0" stop-color="#fff"/>
      <stop offset="1" stop-color="#eceff8"/>
    </linearGradient>
    <filter id="Ellipse_1" x="386.04" y="61" width="428" height="428" filterUnits="userSpaceOnUse">
      <feOffset dy="3" input="SourceAlpha"/>
      <feGaussianBlur stdDeviation="15" result="blur"/>
      <feFlood flood-opacity="0.161"/>
      <feComposite operator="in" in2="blur"/>
      <feComposite in="SourceGraphic"/>
    </filter>
  </defs>
  <g id="Group_17" data-name="Group 17" transform="translate(-359.96 -563)">
    <g id="Ellipse_8" data-name="Ellipse 8" transform="translate(688 563)" fill="none" stroke="#e0e0e0" stroke-width="1">
      <circle cx="272" cy="272" r="272" stroke="none"/>
      <circle cx="272" cy="272" r="271.5" fill="none"/>
    </g>
    <g transform="matrix(1, 0, 0, 1, 359.96, 563)" filter="url(#Ellipse_1)">
      <circle id="Ellipse_1-2" data-name="Ellipse 1" cx="169" cy="169" r="169" transform="translate(431.04 103)" fill="url(#linear-gradient)"/>
    </g>
    <path id="Path_131" data-name="Path 131" d="M-103.87-18.564-110.188,0h-4.29l-6.292-18.564h3.978l3.484,11.05q.1.286.3,1.053t.4,1.612a14.093,14.093,0,0,1,.286,1.417q.078-.572.273-1.417t.4-1.612l.286-1.053,3.51-11.05ZM-94.588,0h-8.45V-2.236l2.262-1.04V-15.288l-2.262-1.04v-2.236h8.45v2.236l-2.262,1.04V-3.276l2.262,1.04ZM-80.47-5.148a4.844,4.844,0,0,1-1.781,3.939A7.747,7.747,0,0,1-87.308.26,11.923,11.923,0,0,1-92.56-.858V-4.524q1.326.572,2.743,1.053A8.732,8.732,0,0,0-87-2.99a3.041,3.041,0,0,0,2.067-.559,1.837,1.837,0,0,0,.611-1.417,1.651,1.651,0,0,0-.481-1.2,5.182,5.182,0,0,0-1.287-.923q-.806-.429-1.846-.923-.65-.312-1.4-.741a7.838,7.838,0,0,1-1.443-1.066,5.137,5.137,0,0,1-1.131-1.547,4.958,4.958,0,0,1-.442-2.184,4.755,4.755,0,0,1,1.69-3.887,7.028,7.028,0,0,1,4.6-1.391,11.068,11.068,0,0,1,2.769.338,18.282,18.282,0,0,1,2.743.962l-1.274,3.068a21.824,21.824,0,0,0-2.288-.806,7.626,7.626,0,0,0-2.08-.286,2.538,2.538,0,0,0-1.716.52,1.707,1.707,0,0,0-.6,1.352,1.771,1.771,0,0,0,.884,1.56,24.769,24.769,0,0,0,2.626,1.4,15.155,15.155,0,0,1,2.431,1.4,5.273,5.273,0,0,1,1.547,1.716A5,5,0,0,1-80.47-5.148ZM-70.148,0H-78.6V-2.236l2.262-1.04V-15.288l-2.262-1.04v-2.236h8.45v2.236l-2.262,1.04V-3.276l2.262,1.04Zm20.02-9.308a12.348,12.348,0,0,1-.949,5.031,7.271,7.271,0,0,1-2.9,3.341A9.42,9.42,0,0,1-58.968.26a9.434,9.434,0,0,1-4.979-1.2A7.239,7.239,0,0,1-66.859-4.29a12.441,12.441,0,0,1-.949-5.044,12.256,12.256,0,0,1,.949-5.018,7.186,7.186,0,0,1,2.912-3.315,9.573,9.573,0,0,1,5.005-1.183,9.446,9.446,0,0,1,4.966,1.183,7.2,7.2,0,0,1,2.9,3.328A12.348,12.348,0,0,1-50.128-9.308Zm-13.546,0a8.188,8.188,0,0,0,1.118,4.589,4,4,0,0,0,3.588,1.677,3.986,3.986,0,0,0,3.614-1.677,8.341,8.341,0,0,0,1.092-4.589,8.328,8.328,0,0,0-1.092-4.6,3.97,3.97,0,0,0-3.588-1.664,4.036,4.036,0,0,0-3.614,1.664A8.176,8.176,0,0,0-63.674-9.308ZM-29.822,0h-4.992L-42.9-14.04H-43q.052,1.326.117,2.652t.117,2.652V0h-3.51V-18.564h4.966l8.06,13.91h.078q-.026-1.3-.078-2.574l-.1-2.548v-8.788h3.536Zm17.16-18.824a7.167,7.167,0,0,1,2.678.468,4.2,4.2,0,0,1,1.846,1.365,3.545,3.545,0,0,1,.676,2.2,4.425,4.425,0,0,1-1.066,3.016A10.236,10.236,0,0,1-11.18-9.646l3.614,3.51a13.682,13.682,0,0,0,.91-1.859,16.784,16.784,0,0,0,.65-1.963h4.03A20.426,20.426,0,0,1-3.12-6.838a14.559,14.559,0,0,1-1.924,3.12L-1.222,0H-6.006L-7.462-1.43a9.585,9.585,0,0,1-2.5,1.235,9.483,9.483,0,0,1-2.99.455A7.616,7.616,0,0,1-17.9-1.2a4.7,4.7,0,0,1-1.781-3.822,5.048,5.048,0,0,1,.91-3.159,8.3,8.3,0,0,1,2.5-2.093,8.091,8.091,0,0,1-1.417-2.158,5.522,5.522,0,0,1-.4-2.106,3.825,3.825,0,0,1,.689-2.288A4.4,4.4,0,0,1-15.483-18.3,7.213,7.213,0,0,1-12.662-18.824Zm-.026,2.99a2.506,2.506,0,0,0-1.235.325,1.285,1.285,0,0,0-.585,1.235,2.579,2.579,0,0,0,.325,1.248,6.833,6.833,0,0,0,.871,1.222A7.171,7.171,0,0,0-11.635-13a1.914,1.914,0,0,0,.585-1.378,1.232,1.232,0,0,0-.52-1.118A2.014,2.014,0,0,0-12.688-15.834Zm-1.326,7.878A5.22,5.22,0,0,0-15.171-6.8,2.4,2.4,0,0,0-15.6-5.382a2.088,2.088,0,0,0,.832,1.755,3.321,3.321,0,0,0,2.08.637,5.656,5.656,0,0,0,1.56-.208A5.377,5.377,0,0,0-9.8-3.77ZM15.73,0,11.258-14.56h-.1L11.232-13q.052,1.04.1,2.223t.052,2.145V0H7.878V-18.564h5.356l4.394,14.2h.078l4.654-14.2h5.356V0H24.05V-8.788q0-.884.039-2.028t.078-2.171q.039-1.027.065-1.547h-.1L19.344,0ZM39.338,0h-8.45V-2.236l2.262-1.04V-15.288l-2.262-1.04v-2.236h8.45v2.236l-2.262,1.04V-3.276l2.262,1.04ZM53.456-5.148a4.844,4.844,0,0,1-1.781,3.939A7.747,7.747,0,0,1,46.618.26,11.923,11.923,0,0,1,41.366-.858V-4.524q1.326.572,2.743,1.053a8.732,8.732,0,0,0,2.821.481A3.041,3.041,0,0,0,49-3.549a1.837,1.837,0,0,0,.611-1.417,1.651,1.651,0,0,0-.481-1.2,5.182,5.182,0,0,0-1.287-.923q-.806-.429-1.846-.923-.65-.312-1.4-.741a7.838,7.838,0,0,1-1.443-1.066,5.136,5.136,0,0,1-1.131-1.547,4.958,4.958,0,0,1-.442-2.184,4.755,4.755,0,0,1,1.69-3.887,7.028,7.028,0,0,1,4.6-1.391,11.068,11.068,0,0,1,2.769.338,18.282,18.282,0,0,1,2.743.962L52.1-14.456a21.825,21.825,0,0,0-2.288-.806,7.626,7.626,0,0,0-2.08-.286,2.538,2.538,0,0,0-1.716.52,1.707,1.707,0,0,0-.6,1.352,1.771,1.771,0,0,0,.884,1.56,24.769,24.769,0,0,0,2.626,1.4,15.155,15.155,0,0,1,2.431,1.4A5.273,5.273,0,0,1,52.91-7.592,5,5,0,0,1,53.456-5.148Zm14.326,0A4.844,4.844,0,0,1,66-1.209,7.747,7.747,0,0,1,60.944.26,11.923,11.923,0,0,1,55.692-.858V-4.524q1.326.572,2.743,1.053a8.732,8.732,0,0,0,2.821.481,3.041,3.041,0,0,0,2.067-.559,1.837,1.837,0,0,0,.611-1.417,1.651,1.651,0,0,0-.481-1.2,5.182,5.182,0,0,0-1.287-.923q-.806-.429-1.846-.923-.65-.312-1.4-.741a7.838,7.838,0,0,1-1.443-1.066,5.136,5.136,0,0,1-1.131-1.547,4.958,4.958,0,0,1-.442-2.184,4.755,4.755,0,0,1,1.69-3.887,7.028,7.028,0,0,1,4.6-1.391,11.068,11.068,0,0,1,2.769.338,18.282,18.282,0,0,1,2.743.962L66.43-14.456a21.826,21.826,0,0,0-2.288-.806,7.626,7.626,0,0,0-2.08-.286,2.538,2.538,0,0,0-1.716.52,1.707,1.707,0,0,0-.6,1.352,1.771,1.771,0,0,0,.884,1.56,24.769,24.769,0,0,0,2.626,1.4,15.155,15.155,0,0,1,2.431,1.4,5.273,5.273,0,0,1,1.547,1.716A5,5,0,0,1,67.782-5.148ZM78.1,0h-8.45V-2.236l2.262-1.04V-15.288l-2.262-1.04v-2.236H78.1v2.236l-2.262,1.04V-3.276L78.1-2.236Zm20.02-9.308a12.348,12.348,0,0,1-.949,5.031,7.271,7.271,0,0,1-2.9,3.341A9.42,9.42,0,0,1,89.284.26a9.434,9.434,0,0,1-4.979-1.2A7.239,7.239,0,0,1,81.393-4.29a12.441,12.441,0,0,1-.949-5.044,12.256,12.256,0,0,1,.949-5.018,7.186,7.186,0,0,1,2.912-3.315,9.573,9.573,0,0,1,5-1.183,9.446,9.446,0,0,1,4.966,1.183,7.2,7.2,0,0,1,2.9,3.328A12.348,12.348,0,0,1,98.124-9.308Zm-13.546,0A8.188,8.188,0,0,0,85.7-4.719a4,4,0,0,0,3.588,1.677A3.986,3.986,0,0,0,92.9-4.719,8.34,8.34,0,0,0,93.99-9.308a8.328,8.328,0,0,0-1.092-4.6,3.97,3.97,0,0,0-3.588-1.664A4.036,4.036,0,0,0,85.7-13.91,8.176,8.176,0,0,0,84.578-9.308ZM118.43,0h-4.992l-8.086-14.04h-.1q.052,1.326.117,2.652t.117,2.652V0h-3.51V-18.564h4.966L115-4.654h.078q-.026-1.3-.078-2.574l-.1-2.548v-8.788h3.536Z" transform="translate(961 845)" fill="#3c5db7"/>
    <g id="Ellipse_2" data-name="Ellipse 2" transform="translate(1166 657)" fill="#3c5db7" stroke="#fff" stroke-width="2">
      <circle cx="10" cy="10" r="10" stroke="none"/>
      <circle cx="10" cy="10" r="9" fill="none"/>
    </g>
    <g id="Ellipse_3" data-name="Ellipse 3" transform="translate(1222 825)" fill="#3c5db7" stroke="#fff" stroke-width="2">
      <circle cx="10" cy="10" r="10" stroke="none"/>
      <circle cx="10" cy="10" r="9" fill="none"/>
    </g>
    <g id="Ellipse_4" data-name="Ellipse 4" transform="translate(1166 993)" fill="#3c5db7" stroke="#fff" stroke-width="2">
      <circle cx="10" cy="10" r="10" stroke="none"/>
      <circle cx="10" cy="10" r="9" fill="none"/>
    </g>
    <g id="Ellipse_5" data-name="Ellipse 5" transform="translate(737 657)" fill="#3c5db7" stroke="#fff" stroke-width="2">
      <circle cx="10" cy="10" r="10" stroke="none"/>
      <circle cx="10" cy="10" r="9" fill="none"/>
    </g>
    <g id="Ellipse_6" data-name="Ellipse 6" transform="translate(679 825)" fill="#3c5db7" stroke="#fff" stroke-width="2">
      <circle cx="10" cy="10" r="10" stroke="none"/>
      <circle cx="10" cy="10" r="9" fill="none"/>
    </g>
    <circle id="Ellipse_7" data-name="Ellipse 7" cx="10" cy="10" r="10" transform="translate(734 993)" fill="#3c5db7"/>
    <path id="Path_128" data-name="Path 128" d="M9.768-9.048H15.7v8.4a17.47,17.47,0,0,1-2.808.672A21.492,21.492,0,0,1,9.672.24,8.75,8.75,0,0,1,5.184-.828,6.884,6.884,0,0,1,2.412-3.876a10.768,10.768,0,0,1-.948-4.692A9.711,9.711,0,0,1,2.52-13.224a7.458,7.458,0,0,1,3.036-3.06,9.782,9.782,0,0,1,4.788-1.092,13.507,13.507,0,0,1,2.724.264,12.069,12.069,0,0,1,2.388.744L14.64-14.5a12.564,12.564,0,0,0-2.052-.7,9.615,9.615,0,0,0-2.364-.288,6.211,6.211,0,0,0-4.788,1.848A7.152,7.152,0,0,0,3.72-8.568a9.264,9.264,0,0,0,.66,3.612A5.145,5.145,0,0,0,6.456-2.508a7,7,0,0,0,3.72.876,13.071,13.071,0,0,0,1.92-.12,14.3,14.3,0,0,0,1.44-.288V-7.128H9.768ZM24.48-13.1a5.385,5.385,0,0,1,2.844.72,4.729,4.729,0,0,1,1.824,2.028,6.923,6.923,0,0,1,.636,3.06v1.272H20.976A4.854,4.854,0,0,0,22.092-2.7,3.894,3.894,0,0,0,25.08-1.56a9.333,9.333,0,0,0,2.172-.228,12.249,12.249,0,0,0,1.956-.66V-.6a10.018,10.018,0,0,1-1.944.636,11.1,11.1,0,0,1-2.28.2A6.79,6.79,0,0,1,21.756-.5a5.18,5.18,0,0,1-2.184-2.22,7.653,7.653,0,0,1-.78-3.612A8.488,8.488,0,0,1,19.5-9.96a5.381,5.381,0,0,1,1.992-2.328A5.45,5.45,0,0,1,24.48-13.1Zm-.024,1.728a3.053,3.053,0,0,0-2.388.972,4.582,4.582,0,0,0-1.044,2.7h6.552a4.51,4.51,0,0,0-.768-2.652A2.715,2.715,0,0,0,24.456-11.376ZM39.24-13.1a4.877,4.877,0,0,1,3.48,1.116A4.8,4.8,0,0,1,43.9-8.376V0H41.808V-8.232q0-3.1-2.88-3.1a3.316,3.316,0,0,0-2.952,1.2,6.129,6.129,0,0,0-.816,3.456V0H33.048V-12.864h1.7l.312,1.752h.12a3.8,3.8,0,0,1,1.728-1.5A5.656,5.656,0,0,1,39.24-13.1Zm13.608,0a5.385,5.385,0,0,1,2.844.72,4.729,4.729,0,0,1,1.824,2.028,6.923,6.923,0,0,1,.636,3.06v1.272H49.344A4.854,4.854,0,0,0,50.46-2.7a3.894,3.894,0,0,0,2.988,1.14,9.333,9.333,0,0,0,2.172-.228,12.249,12.249,0,0,0,1.956-.66V-.6a10.018,10.018,0,0,1-1.944.636,11.1,11.1,0,0,1-2.28.2A6.79,6.79,0,0,1,50.124-.5a5.18,5.18,0,0,1-2.184-2.22,7.653,7.653,0,0,1-.78-3.612,8.488,8.488,0,0,1,.708-3.624,5.381,5.381,0,0,1,1.992-2.328A5.45,5.45,0,0,1,52.848-13.1Zm-.024,1.728a3.053,3.053,0,0,0-2.388.972,4.582,4.582,0,0,0-1.044,2.7h6.552a4.51,4.51,0,0,0-.768-2.652A2.715,2.715,0,0,0,52.824-11.376ZM67.416-13.1q.36,0,.78.036a5.31,5.31,0,0,1,.732.108l-.264,1.944q-.312-.072-.684-.12a5.54,5.54,0,0,0-.708-.048,3.426,3.426,0,0,0-1.848.54,3.889,3.889,0,0,0-1.38,1.512,4.768,4.768,0,0,0-.516,2.268V0H61.416V-12.864h1.728l.24,2.352h.1a6.477,6.477,0,0,1,1.608-1.824A3.672,3.672,0,0,1,67.416-13.1Zm8.3.024a5.025,5.025,0,0,1,3.48,1.032A4.261,4.261,0,0,1,80.328-8.76V0H78.792l-.408-1.824h-.1a5.945,5.945,0,0,1-1.764,1.56,5.385,5.385,0,0,1-2.556.5,4.494,4.494,0,0,1-2.9-.924,3.486,3.486,0,0,1-1.152-2.892A3.39,3.39,0,0,1,71.424-6.54,8.771,8.771,0,0,1,76.08-7.68l2.184-.072V-8.52a2.91,2.91,0,0,0-.7-2.232,2.848,2.848,0,0,0-1.968-.624,6.1,6.1,0,0,0-1.92.3,13.752,13.752,0,0,0-1.7.684l-.648-1.584a9.667,9.667,0,0,1,1.992-.78A8.822,8.822,0,0,1,75.72-13.08Zm.624,6.864a6.394,6.394,0,0,0-3.324.768,2.207,2.207,0,0,0-.924,1.9,1.866,1.866,0,0,0,.66,1.584,2.71,2.71,0,0,0,1.692.5,4.093,4.093,0,0,0,2.712-.9,3.4,3.4,0,0,0,1.08-2.772V-6.288ZM86.424,0H84.312V-18.24h2.112Zm18.624-7.272q-.312-.984-.54-1.932t-.348-1.476h-.1q-.1.528-.312,1.476T103.2-7.248L100.9-.024H98.5L94.968-12.888h2.184l1.776,6.864q.264,1.032.5,2.088t.336,1.752h.1q.1-.408.228-1.008t.3-1.26q.168-.66.336-1.188l2.28-7.248h2.3L107.52-5.64q.264.816.516,1.776a14.46,14.46,0,0,1,.348,1.656h.1a15.664,15.664,0,0,1,.324-1.656q.252-1.056.54-2.16l1.8-6.864h2.16L109.728-.024h-2.472ZM120.576-13.1a5.384,5.384,0,0,1,2.844.72,4.729,4.729,0,0,1,1.824,2.028,6.923,6.923,0,0,1,.636,3.06v1.272h-8.808A4.854,4.854,0,0,0,118.188-2.7a3.894,3.894,0,0,0,2.988,1.14,9.333,9.333,0,0,0,2.172-.228,12.249,12.249,0,0,0,1.956-.66V-.6a10.018,10.018,0,0,1-1.944.636,11.1,11.1,0,0,1-2.28.2A6.79,6.79,0,0,1,117.852-.5a5.18,5.18,0,0,1-2.184-2.22,7.653,7.653,0,0,1-.78-3.612A8.488,8.488,0,0,1,115.6-9.96a5.381,5.381,0,0,1,1.992-2.328A5.45,5.45,0,0,1,120.576-13.1Zm-.024,1.728a3.053,3.053,0,0,0-2.388.972,4.582,4.582,0,0,0-1.044,2.7h6.552a4.51,4.51,0,0,0-.768-2.652A2.715,2.715,0,0,0,120.552-11.376ZM131.256,0h-2.112V-18.24h2.112Zm10.008-11.232h-3.24V0h-2.112V-11.232h-2.256v-.984l2.256-.72v-.744a4.9,4.9,0,0,1,1.1-3.588,4.179,4.179,0,0,1,3.072-1.092,6.921,6.921,0,0,1,1.4.132,7.752,7.752,0,0,1,1.092.3l-.552,1.656q-.384-.12-.888-.24a4.44,4.44,0,0,0-1.032-.12,1.817,1.817,0,0,0-1.572.708,3.8,3.8,0,0,0-.516,2.22v.84h3.24Zm7.2-1.848a5.025,5.025,0,0,1,3.48,1.032,4.261,4.261,0,0,1,1.128,3.288V0h-1.536l-.408-1.824h-.1a5.945,5.945,0,0,1-1.764,1.56,5.385,5.385,0,0,1-2.556.5,4.494,4.494,0,0,1-2.9-.924,3.486,3.486,0,0,1-1.152-2.892,3.39,3.39,0,0,1,1.512-2.964,8.771,8.771,0,0,1,4.656-1.14l2.184-.072V-8.52a2.91,2.91,0,0,0-.7-2.232,2.848,2.848,0,0,0-1.968-.624,6.105,6.105,0,0,0-1.92.3,13.753,13.753,0,0,0-1.7.684l-.648-1.584a9.667,9.667,0,0,1,1.992-.78A8.823,8.823,0,0,1,148.464-13.08Zm.624,6.864a6.394,6.394,0,0,0-3.324.768,2.207,2.207,0,0,0-.924,1.9,1.866,1.866,0,0,0,.66,1.584,2.709,2.709,0,0,0,1.692.5,4.093,4.093,0,0,0,2.712-.9,3.4,3.4,0,0,0,1.08-2.772V-6.288ZM163.056-13.1q.36,0,.78.036a5.309,5.309,0,0,1,.732.108l-.264,1.944q-.312-.072-.684-.12a5.541,5.541,0,0,0-.708-.048,3.426,3.426,0,0,0-1.848.54,3.889,3.889,0,0,0-1.38,1.512,4.767,4.767,0,0,0-.516,2.268V0h-2.112V-12.864h1.728l.24,2.352h.1a6.477,6.477,0,0,1,1.608-1.824A3.672,3.672,0,0,1,163.056-13.1Zm8.4,0a5.385,5.385,0,0,1,2.844.72,4.729,4.729,0,0,1,1.824,2.028,6.923,6.923,0,0,1,.636,3.06v1.272h-8.808A4.854,4.854,0,0,0,169.068-2.7a3.894,3.894,0,0,0,2.988,1.14,9.333,9.333,0,0,0,2.172-.228,12.249,12.249,0,0,0,1.956-.66V-.6a10.018,10.018,0,0,1-1.944.636,11.1,11.1,0,0,1-2.28.2A6.79,6.79,0,0,1,168.732-.5a5.18,5.18,0,0,1-2.184-2.22,7.653,7.653,0,0,1-.78-3.612,8.488,8.488,0,0,1,.708-3.624,5.381,5.381,0,0,1,1.992-2.328A5.45,5.45,0,0,1,171.456-13.1Zm-.024,1.728a3.053,3.053,0,0,0-2.388.972A4.582,4.582,0,0,0,168-7.7h6.552a4.51,4.51,0,0,0-.768-2.652A2.715,2.715,0,0,0,171.432-11.376Zm26.016,4.92a7.013,7.013,0,0,1-1.62,4.944A5.675,5.675,0,0,1,191.448.24a5.9,5.9,0,0,1-3.036-.78,5.432,5.432,0,0,1-2.1-2.28,7.9,7.9,0,0,1-.768-3.636,6.956,6.956,0,0,1,1.608-4.92A5.676,5.676,0,0,1,191.52-13.1a5.99,5.99,0,0,1,3.084.78,5.386,5.386,0,0,1,2.088,2.256A7.856,7.856,0,0,1,197.448-6.456Zm-9.72,0a6.368,6.368,0,0,0,.9,3.612A3.212,3.212,0,0,0,191.5-1.512a3.218,3.218,0,0,0,2.856-1.332,6.3,6.3,0,0,0,.912-3.612,6.128,6.128,0,0,0-.912-3.576,3.277,3.277,0,0,0-2.88-1.3,3.214,3.214,0,0,0-2.856,1.3A6.255,6.255,0,0,0,187.728-6.456Zm18.984-4.776h-3.24V0H201.36V-11.232H199.1v-.984l2.256-.72v-.744a4.9,4.9,0,0,1,1.1-3.588,4.179,4.179,0,0,1,3.072-1.092,6.921,6.921,0,0,1,1.4.132,7.752,7.752,0,0,1,1.092.3l-.552,1.656q-.384-.12-.888-.24a4.44,4.44,0,0,0-1.032-.12,1.817,1.817,0,0,0-1.572.708,3.8,3.8,0,0,0-.516,2.22v.84h3.24Zm16.944,7.68A3.218,3.218,0,0,1,222.264-.72a6.49,6.49,0,0,1-3.744.96A10.808,10.808,0,0,1,216.2.024a7.082,7.082,0,0,1-1.716-.6V-2.5a11.523,11.523,0,0,0,1.86.708,7.765,7.765,0,0,0,2.22.324A4.074,4.074,0,0,0,220.9-1.98a1.615,1.615,0,0,0,.72-1.38,1.49,1.49,0,0,0-.264-.864,2.8,2.8,0,0,0-.948-.768,15.007,15.007,0,0,0-1.956-.864,18.508,18.508,0,0,1-2.136-.96,3.945,3.945,0,0,1-1.368-1.152,2.9,2.9,0,0,1-.48-1.728,2.854,2.854,0,0,1,1.332-2.52,6.192,6.192,0,0,1,3.492-.888,10.056,10.056,0,0,1,2.2.228,9.541,9.541,0,0,1,1.908.636l-.72,1.68a14.2,14.2,0,0,0-1.7-.576,6.96,6.96,0,0,0-1.824-.24,3.817,3.817,0,0,0-1.98.42,1.284,1.284,0,0,0-.684,1.14,1.354,1.354,0,0,0,.312.9,3.094,3.094,0,0,0,1.044.72q.732.348,1.956.828a15.423,15.423,0,0,1,2.088.936,3.707,3.707,0,0,1,1.32,1.164A3.029,3.029,0,0,1,223.656-3.552Zm14.3-2.9a7.013,7.013,0,0,1-1.62,4.944A5.675,5.675,0,0,1,231.96.24a5.9,5.9,0,0,1-3.036-.78,5.432,5.432,0,0,1-2.1-2.28,7.9,7.9,0,0,1-.768-3.636,6.956,6.956,0,0,1,1.608-4.92,5.676,5.676,0,0,1,4.368-1.728,5.99,5.99,0,0,1,3.084.78,5.386,5.386,0,0,1,2.088,2.256A7.856,7.856,0,0,1,237.96-6.456Zm-9.72,0a6.368,6.368,0,0,0,.9,3.612,3.212,3.212,0,0,0,2.868,1.332,3.218,3.218,0,0,0,2.856-1.332,6.3,6.3,0,0,0,.912-3.612,6.128,6.128,0,0,0-.912-3.576,3.277,3.277,0,0,0-2.88-1.3,3.214,3.214,0,0,0-2.856,1.3A6.255,6.255,0,0,0,228.24-6.456ZM246.456.24a6.458,6.458,0,0,1-3.036-.7,4.876,4.876,0,0,1-2.088-2.16,8.138,8.138,0,0,1-.756-3.744,8.207,8.207,0,0,1,.792-3.864,5.016,5.016,0,0,1,2.148-2.184,6.657,6.657,0,0,1,3.084-.7,8.661,8.661,0,0,1,1.9.2,6.6,6.6,0,0,1,1.488.492l-.648,1.752a12.489,12.489,0,0,0-1.344-.408,5.953,5.953,0,0,0-1.44-.192q-3.792,0-3.792,4.872a5.878,5.878,0,0,0,.924,3.564,3.213,3.213,0,0,0,2.748,1.236,7.2,7.2,0,0,0,1.86-.216,9.12,9.12,0,0,0,1.476-.528V-.456A6.038,6.038,0,0,1,248.34.06,8.5,8.5,0,0,1,246.456.24Zm7.44-17.928a1.26,1.26,0,0,1,.852.324,1.284,1.284,0,0,1,.372,1.02,1.29,1.29,0,0,1-.372,1.008A1.235,1.235,0,0,1,253.9-15a1.252,1.252,0,0,1-.888-.336,1.314,1.314,0,0,1-.36-1.008,1.307,1.307,0,0,1,.36-1.02A1.279,1.279,0,0,1,253.9-17.688Zm1.032,4.824V0h-2.112V-12.864Zm9.048-.24a5.384,5.384,0,0,1,2.844.72,4.728,4.728,0,0,1,1.824,2.028,6.923,6.923,0,0,1,.636,3.06v1.272h-8.808A4.854,4.854,0,0,0,261.588-2.7a3.894,3.894,0,0,0,2.988,1.14,9.333,9.333,0,0,0,2.172-.228,12.249,12.249,0,0,0,1.956-.66V-.6a10.018,10.018,0,0,1-1.944.636,11.1,11.1,0,0,1-2.28.2A6.79,6.79,0,0,1,261.252-.5a5.18,5.18,0,0,1-2.184-2.22,7.653,7.653,0,0,1-.78-3.612A8.488,8.488,0,0,1,259-9.96a5.381,5.381,0,0,1,1.992-2.328A5.45,5.45,0,0,1,263.976-13.1Zm-.024,1.728a3.053,3.053,0,0,0-2.388.972,4.582,4.582,0,0,0-1.044,2.7h6.552a4.51,4.51,0,0,0-.768-2.652A2.715,2.715,0,0,0,263.952-11.376ZM276.84-1.488a5.981,5.981,0,0,0,.984-.084,6.5,6.5,0,0,0,.816-.18V-.144a3.591,3.591,0,0,1-.96.276,7.038,7.038,0,0,1-1.2.108,4.873,4.873,0,0,1-1.86-.348,2.878,2.878,0,0,1-1.38-1.212,4.659,4.659,0,0,1-.528-2.424v-7.488h-1.824V-12.24l1.848-.84.84-2.736h1.248v2.952h3.72v1.632h-3.72v7.44a2.371,2.371,0,0,0,.564,1.74A1.965,1.965,0,0,0,276.84-1.488Zm2.352-11.376h2.256l2.784,7.32q.36.96.648,1.836a12.547,12.547,0,0,1,.432,1.668h.1q.144-.6.456-1.572t.648-1.956l2.616-7.3h2.28l-5.544,14.64a8,8,0,0,1-1.74,2.9,3.948,3.948,0,0,1-2.94,1.08,7.421,7.421,0,0,1-1.008-.06q-.432-.06-.744-.132V3.888q.264.048.636.1a6.1,6.1,0,0,0,.78.048,2.55,2.55,0,0,0,1.788-.624A4.153,4.153,0,0,0,283.7,1.752l.672-1.7Z" transform="translate(1216 675)" fill="#0f0f0f"/>
    <path id="Path_133" data-name="Path 133" d="M7.152,0H.96V-1.248L2.976-1.7v-13.7L.96-15.888v-1.248H7.152v1.248l-2.016.48V-1.7l2.016.456Zm9.216-13.1a4.877,4.877,0,0,1,3.48,1.116,4.8,4.8,0,0,1,1.176,3.612V0H18.936V-8.232q0-3.1-2.88-3.1a3.316,3.316,0,0,0-2.952,1.2,6.129,6.129,0,0,0-.816,3.456V0H10.176V-12.864h1.7l.312,1.752h.12a3.8,3.8,0,0,1,1.728-1.5A5.656,5.656,0,0,1,16.368-13.1ZM29.3-1.488a5.981,5.981,0,0,0,.984-.084,6.5,6.5,0,0,0,.816-.18V-.144a3.591,3.591,0,0,1-.96.276,7.038,7.038,0,0,1-1.2.108,4.873,4.873,0,0,1-1.86-.348A2.877,2.877,0,0,1,25.7-1.32a4.659,4.659,0,0,1-.528-2.424v-7.488H23.352V-12.24l1.848-.84.84-2.736h1.248v2.952h3.72v1.632h-3.72v7.44a2.371,2.371,0,0,0,.564,1.74A1.965,1.965,0,0,0,29.3-1.488ZM38.64-13.1a5.385,5.385,0,0,1,2.844.72,4.729,4.729,0,0,1,1.824,2.028,6.923,6.923,0,0,1,.636,3.06v1.272H35.136A4.854,4.854,0,0,0,36.252-2.7,3.894,3.894,0,0,0,39.24-1.56a9.333,9.333,0,0,0,2.172-.228,12.249,12.249,0,0,0,1.956-.66V-.6a10.018,10.018,0,0,1-1.944.636,11.1,11.1,0,0,1-2.28.2A6.79,6.79,0,0,1,35.916-.5a5.18,5.18,0,0,1-2.184-2.22,7.653,7.653,0,0,1-.78-3.612A8.488,8.488,0,0,1,33.66-9.96a5.381,5.381,0,0,1,1.992-2.328A5.45,5.45,0,0,1,38.64-13.1Zm-.024,1.728a3.053,3.053,0,0,0-2.388.972,4.582,4.582,0,0,0-1.044,2.7h6.552a4.51,4.51,0,0,0-.768-2.652A2.715,2.715,0,0,0,38.616-11.376ZM53.208-13.1q.36,0,.78.036a5.31,5.31,0,0,1,.732.108l-.264,1.944q-.312-.072-.684-.12a5.541,5.541,0,0,0-.708-.048,3.426,3.426,0,0,0-1.848.54,3.889,3.889,0,0,0-1.38,1.512,4.768,4.768,0,0,0-.516,2.268V0H47.208V-12.864h1.728l.24,2.352h.1a6.477,6.477,0,0,1,1.608-1.824A3.672,3.672,0,0,1,53.208-13.1Zm10.1,0a4.877,4.877,0,0,1,3.48,1.116,4.8,4.8,0,0,1,1.176,3.612V0H65.88V-8.232q0-3.1-2.88-3.1a3.316,3.316,0,0,0-2.952,1.2,6.129,6.129,0,0,0-.816,3.456V0H57.12V-12.864h1.7l.312,1.752h.12a3.8,3.8,0,0,1,1.728-1.5A5.656,5.656,0,0,1,63.312-13.1Zm13.512.024a5.025,5.025,0,0,1,3.48,1.032A4.261,4.261,0,0,1,81.432-8.76V0H79.9l-.408-1.824h-.1a5.945,5.945,0,0,1-1.764,1.56,5.385,5.385,0,0,1-2.556.5,4.494,4.494,0,0,1-2.9-.924,3.486,3.486,0,0,1-1.152-2.892A3.39,3.39,0,0,1,72.528-6.54a8.771,8.771,0,0,1,4.656-1.14l2.184-.072V-8.52a2.91,2.91,0,0,0-.7-2.232,2.848,2.848,0,0,0-1.968-.624,6.1,6.1,0,0,0-1.92.3,13.752,13.752,0,0,0-1.7.684l-.648-1.584a9.667,9.667,0,0,1,1.992-.78A8.822,8.822,0,0,1,76.824-13.08Zm.624,6.864a6.394,6.394,0,0,0-3.324.768,2.207,2.207,0,0,0-.924,1.9,1.866,1.866,0,0,0,.66,1.584,2.71,2.71,0,0,0,1.692.5,4.093,4.093,0,0,0,2.712-.9,3.4,3.4,0,0,0,1.08-2.772V-6.288ZM89.712-1.488a5.981,5.981,0,0,0,.984-.084,6.5,6.5,0,0,0,.816-.18V-.144a3.591,3.591,0,0,1-.96.276,7.038,7.038,0,0,1-1.2.108,4.873,4.873,0,0,1-1.86-.348,2.877,2.877,0,0,1-1.38-1.212,4.659,4.659,0,0,1-.528-2.424v-7.488H83.76V-12.24l1.848-.84.84-2.736H87.7v2.952h3.72v1.632H87.7v7.44a2.371,2.371,0,0,0,.564,1.74A1.965,1.965,0,0,0,89.712-1.488Zm5.448-16.2a1.26,1.26,0,0,1,.852.324,1.284,1.284,0,0,1,.372,1.02,1.29,1.29,0,0,1-.372,1.008A1.235,1.235,0,0,1,95.16-15a1.252,1.252,0,0,1-.888-.336,1.314,1.314,0,0,1-.36-1.008,1.308,1.308,0,0,1,.36-1.02A1.279,1.279,0,0,1,95.16-17.688Zm1.032,4.824V0H94.08V-12.864Zm15.264,6.408a7.013,7.013,0,0,1-1.62,4.944A5.675,5.675,0,0,1,105.456.24a5.9,5.9,0,0,1-3.036-.78,5.432,5.432,0,0,1-2.1-2.28,7.9,7.9,0,0,1-.768-3.636,6.956,6.956,0,0,1,1.608-4.92,5.676,5.676,0,0,1,4.368-1.728,5.99,5.99,0,0,1,3.084.78,5.386,5.386,0,0,1,2.088,2.256A7.856,7.856,0,0,1,111.456-6.456Zm-9.72,0a6.368,6.368,0,0,0,.9,3.612A3.212,3.212,0,0,0,105.5-1.512a3.218,3.218,0,0,0,2.856-1.332,6.3,6.3,0,0,0,.912-3.612,6.128,6.128,0,0,0-.912-3.576,3.277,3.277,0,0,0-2.88-1.3,3.214,3.214,0,0,0-2.856,1.3A6.254,6.254,0,0,0,101.736-6.456ZM120.984-13.1a4.877,4.877,0,0,1,3.48,1.116,4.8,4.8,0,0,1,1.176,3.612V0h-2.088V-8.232q0-3.1-2.88-3.1a3.316,3.316,0,0,0-2.952,1.2,6.129,6.129,0,0,0-.816,3.456V0h-2.112V-12.864h1.7l.312,1.752h.12a3.8,3.8,0,0,1,1.728-1.5A5.656,5.656,0,0,1,120.984-13.1Zm13.512.024a5.025,5.025,0,0,1,3.48,1.032A4.261,4.261,0,0,1,139.1-8.76V0h-1.536l-.408-1.824h-.1A5.945,5.945,0,0,1,135.3-.264a5.385,5.385,0,0,1-2.556.5,4.494,4.494,0,0,1-2.9-.924,3.486,3.486,0,0,1-1.152-2.892A3.39,3.39,0,0,1,130.2-6.54a8.771,8.771,0,0,1,4.656-1.14l2.184-.072V-8.52a2.91,2.91,0,0,0-.7-2.232,2.848,2.848,0,0,0-1.968-.624,6.105,6.105,0,0,0-1.92.3,13.753,13.753,0,0,0-1.7.684l-.648-1.584a9.667,9.667,0,0,1,1.992-.78A8.823,8.823,0,0,1,134.5-13.08Zm.624,6.864a6.394,6.394,0,0,0-3.324.768,2.207,2.207,0,0,0-.924,1.9,1.866,1.866,0,0,0,.66,1.584,2.709,2.709,0,0,0,1.692.5,4.093,4.093,0,0,0,2.712-.9,3.4,3.4,0,0,0,1.08-2.772V-6.288ZM145.2,0h-2.112V-18.24H145.2Zm17.952-15.48a5.42,5.42,0,0,0-4.344,1.848,7.529,7.529,0,0,0-1.584,5.064A7.911,7.911,0,0,0,158.7-3.516a5.31,5.31,0,0,0,4.428,1.86,11.4,11.4,0,0,0,2.136-.192,19.619,19.619,0,0,0,1.968-.48V-.456a10.472,10.472,0,0,1-1.98.528,15.23,15.23,0,0,1-2.436.168,8.186,8.186,0,0,1-4.368-1.08,6.649,6.649,0,0,1-2.628-3.072,11.55,11.55,0,0,1-.876-4.68,10.469,10.469,0,0,1,.948-4.572,7.134,7.134,0,0,1,2.8-3.1,8.529,8.529,0,0,1,4.488-1.116,10.449,10.449,0,0,1,4.728,1.008l-.864,1.824a13.616,13.616,0,0,0-1.764-.648A7.451,7.451,0,0,0,163.152-15.48Zm18.72,9.024a7.013,7.013,0,0,1-1.62,4.944A5.675,5.675,0,0,1,175.872.24a5.9,5.9,0,0,1-3.036-.78,5.432,5.432,0,0,1-2.1-2.28,7.9,7.9,0,0,1-.768-3.636,6.956,6.956,0,0,1,1.608-4.92,5.676,5.676,0,0,1,4.368-1.728,5.99,5.99,0,0,1,3.084.78,5.386,5.386,0,0,1,2.088,2.256A7.856,7.856,0,0,1,181.872-6.456Zm-9.72,0a6.368,6.368,0,0,0,.9,3.612,3.212,3.212,0,0,0,2.868,1.332,3.218,3.218,0,0,0,2.856-1.332,6.3,6.3,0,0,0,.912-3.612,6.128,6.128,0,0,0-.912-3.576,3.277,3.277,0,0,0-2.88-1.3,3.214,3.214,0,0,0-2.856,1.3A6.255,6.255,0,0,0,172.152-6.456Zm24.24,0a7.013,7.013,0,0,1-1.62,4.944A5.675,5.675,0,0,1,190.392.24a5.9,5.9,0,0,1-3.036-.78,5.432,5.432,0,0,1-2.1-2.28,7.9,7.9,0,0,1-.768-3.636,6.956,6.956,0,0,1,1.608-4.92,5.676,5.676,0,0,1,4.368-1.728,5.99,5.99,0,0,1,3.084.78,5.386,5.386,0,0,1,2.088,2.256A7.856,7.856,0,0,1,196.392-6.456Zm-9.72,0a6.368,6.368,0,0,0,.9,3.612,3.212,3.212,0,0,0,2.868,1.332A3.218,3.218,0,0,0,193.3-2.844a6.3,6.3,0,0,0,.912-3.612,6.128,6.128,0,0,0-.912-3.576,3.277,3.277,0,0,0-2.88-1.3,3.214,3.214,0,0,0-2.856,1.3A6.255,6.255,0,0,0,186.672-6.456ZM205.848-13.1a4.844,4.844,0,0,1,3.828,1.656,7.394,7.394,0,0,1,1.452,4.992,7.508,7.508,0,0,1-1.452,4.992,4.809,4.809,0,0,1-3.852,1.7,4.846,4.846,0,0,1-2.46-.564,4.956,4.956,0,0,1-1.524-1.308H201.7q.048.408.1,1.032T201.84.48V5.76h-2.112V-12.864h1.728l.288,1.752h.1a4.943,4.943,0,0,1,1.512-1.416A4.725,4.725,0,0,1,205.848-13.1Zm-.384,1.776a3.2,3.2,0,0,0-2.772,1.1,5.938,5.938,0,0,0-.852,3.36v.408a7.093,7.093,0,0,0,.78,3.66,3.1,3.1,0,0,0,2.892,1.284,2.864,2.864,0,0,0,1.932-.648,3.873,3.873,0,0,0,1.128-1.764,8.073,8.073,0,0,0,.372-2.556,6.432,6.432,0,0,0-.852-3.528A2.908,2.908,0,0,0,205.464-11.328ZM219.456-13.1a5.385,5.385,0,0,1,2.844.72,4.729,4.729,0,0,1,1.824,2.028,6.923,6.923,0,0,1,.636,3.06v1.272h-8.808A4.854,4.854,0,0,0,217.068-2.7a3.894,3.894,0,0,0,2.988,1.14,9.333,9.333,0,0,0,2.172-.228,12.249,12.249,0,0,0,1.956-.66V-.6a10.018,10.018,0,0,1-1.944.636,11.1,11.1,0,0,1-2.28.2A6.79,6.79,0,0,1,216.732-.5a5.18,5.18,0,0,1-2.184-2.22,7.653,7.653,0,0,1-.78-3.612,8.488,8.488,0,0,1,.708-3.624,5.381,5.381,0,0,1,1.992-2.328A5.45,5.45,0,0,1,219.456-13.1Zm-.024,1.728a3.053,3.053,0,0,0-2.388.972A4.582,4.582,0,0,0,216-7.7h6.552a4.51,4.51,0,0,0-.768-2.652A2.715,2.715,0,0,0,219.432-11.376ZM234.024-13.1q.36,0,.78.036a5.309,5.309,0,0,1,.732.108l-.264,1.944q-.312-.072-.684-.12a5.541,5.541,0,0,0-.708-.048,3.426,3.426,0,0,0-1.848.54,3.889,3.889,0,0,0-1.38,1.512,4.767,4.767,0,0,0-.516,2.268V0h-2.112V-12.864h1.728l.24,2.352h.1a6.477,6.477,0,0,1,1.608-1.824A3.672,3.672,0,0,1,234.024-13.1Zm8.3.024a5.025,5.025,0,0,1,3.48,1.032,4.261,4.261,0,0,1,1.128,3.288V0H245.4l-.408-1.824h-.1a5.945,5.945,0,0,1-1.764,1.56,5.385,5.385,0,0,1-2.556.5,4.494,4.494,0,0,1-2.9-.924,3.486,3.486,0,0,1-1.152-2.892,3.39,3.39,0,0,1,1.512-2.964,8.771,8.771,0,0,1,4.656-1.14l2.184-.072V-8.52a2.91,2.91,0,0,0-.7-2.232,2.848,2.848,0,0,0-1.968-.624,6.105,6.105,0,0,0-1.92.3,13.753,13.753,0,0,0-1.7.684l-.648-1.584a9.667,9.667,0,0,1,1.992-.78A8.823,8.823,0,0,1,242.328-13.08Zm.624,6.864a6.394,6.394,0,0,0-3.324.768,2.207,2.207,0,0,0-.924,1.9,1.866,1.866,0,0,0,.66,1.584,2.709,2.709,0,0,0,1.692.5,4.093,4.093,0,0,0,2.712-.9,3.4,3.4,0,0,0,1.08-2.772V-6.288Zm12.264,4.728a5.981,5.981,0,0,0,.984-.084,6.5,6.5,0,0,0,.816-.18V-.144a3.591,3.591,0,0,1-.96.276,7.038,7.038,0,0,1-1.2.108A4.873,4.873,0,0,1,253-.108a2.877,2.877,0,0,1-1.38-1.212,4.659,4.659,0,0,1-.528-2.424v-7.488h-1.824V-12.24l1.848-.84.84-2.736H253.2v2.952h3.72v1.632H253.2v7.44a2.371,2.371,0,0,0,.564,1.74A1.965,1.965,0,0,0,255.216-1.488Zm5.448-16.2a1.26,1.26,0,0,1,.852.324,1.284,1.284,0,0,1,.372,1.02,1.29,1.29,0,0,1-.372,1.008,1.235,1.235,0,0,1-.852.336,1.252,1.252,0,0,1-.888-.336,1.314,1.314,0,0,1-.36-1.008,1.308,1.308,0,0,1,.36-1.02A1.279,1.279,0,0,1,260.664-17.688Zm1.032,4.824V0h-2.112V-12.864ZM276.96-6.456a7.013,7.013,0,0,1-1.62,4.944A5.675,5.675,0,0,1,270.96.24a5.9,5.9,0,0,1-3.036-.78,5.432,5.432,0,0,1-2.1-2.28,7.9,7.9,0,0,1-.768-3.636,6.956,6.956,0,0,1,1.608-4.92,5.676,5.676,0,0,1,4.368-1.728,5.99,5.99,0,0,1,3.084.78,5.386,5.386,0,0,1,2.088,2.256A7.856,7.856,0,0,1,276.96-6.456Zm-9.72,0a6.368,6.368,0,0,0,.9,3.612,3.212,3.212,0,0,0,2.868,1.332,3.218,3.218,0,0,0,2.856-1.332,6.3,6.3,0,0,0,.912-3.612,6.128,6.128,0,0,0-.912-3.576,3.277,3.277,0,0,0-2.88-1.3,3.214,3.214,0,0,0-2.856,1.3A6.254,6.254,0,0,0,267.24-6.456ZM286.488-13.1a4.877,4.877,0,0,1,3.48,1.116,4.8,4.8,0,0,1,1.176,3.612V0h-2.088V-8.232q0-3.1-2.88-3.1a3.317,3.317,0,0,0-2.952,1.2,6.129,6.129,0,0,0-.816,3.456V0H280.3V-12.864H282l.312,1.752h.12a3.8,3.8,0,0,1,1.728-1.5A5.656,5.656,0,0,1,286.488-13.1Z" transform="translate(359 843)" fill="#0f0f0f"/>
    <path id="Path_129" data-name="Path 129" d="M4.488,0H2.328V-17.136H11.9v1.9H4.488v6.072h6.96v1.9H4.488ZM25.68-6.456a7.013,7.013,0,0,1-1.62,4.944A5.675,5.675,0,0,1,19.68.24a5.9,5.9,0,0,1-3.036-.78,5.432,5.432,0,0,1-2.1-2.28,7.9,7.9,0,0,1-.768-3.636,6.956,6.956,0,0,1,1.608-4.92A5.676,5.676,0,0,1,19.752-13.1a5.99,5.99,0,0,1,3.084.78,5.386,5.386,0,0,1,2.088,2.256A7.856,7.856,0,0,1,25.68-6.456Zm-9.72,0a6.368,6.368,0,0,0,.9,3.612,3.212,3.212,0,0,0,2.868,1.332,3.218,3.218,0,0,0,2.856-1.332A6.3,6.3,0,0,0,23.5-6.456a6.128,6.128,0,0,0-.912-3.576,3.277,3.277,0,0,0-2.88-1.3,3.214,3.214,0,0,0-2.856,1.3A6.254,6.254,0,0,0,15.96-6.456Zm21.432,2.9A3.218,3.218,0,0,1,36-.72a6.49,6.49,0,0,1-3.744.96A10.808,10.808,0,0,1,29.94.024a7.082,7.082,0,0,1-1.716-.6V-2.5a11.523,11.523,0,0,0,1.86.708,7.765,7.765,0,0,0,2.22.324,4.074,4.074,0,0,0,2.328-.516,1.615,1.615,0,0,0,.72-1.38,1.49,1.49,0,0,0-.264-.864,2.8,2.8,0,0,0-.948-.768,15.006,15.006,0,0,0-1.956-.864,18.508,18.508,0,0,1-2.136-.96A3.944,3.944,0,0,1,28.68-7.968,2.9,2.9,0,0,1,28.2-9.7a2.854,2.854,0,0,1,1.332-2.52,6.192,6.192,0,0,1,3.492-.888,10.056,10.056,0,0,1,2.2.228,9.541,9.541,0,0,1,1.908.636l-.72,1.68a14.2,14.2,0,0,0-1.7-.576,6.96,6.96,0,0,0-1.824-.24,3.817,3.817,0,0,0-1.98.42,1.284,1.284,0,0,0-.684,1.14,1.354,1.354,0,0,0,.312.9,3.094,3.094,0,0,0,1.044.72q.732.348,1.956.828a15.422,15.422,0,0,1,2.088.936,3.707,3.707,0,0,1,1.32,1.164A3.029,3.029,0,0,1,37.392-3.552Zm7.416,2.064a5.981,5.981,0,0,0,.984-.084,6.5,6.5,0,0,0,.816-.18V-.144a3.591,3.591,0,0,1-.96.276,7.038,7.038,0,0,1-1.2.108,4.873,4.873,0,0,1-1.86-.348,2.877,2.877,0,0,1-1.38-1.212,4.659,4.659,0,0,1-.528-2.424v-7.488H38.856V-12.24l1.848-.84.84-2.736h1.248v2.952h3.72v1.632h-3.72v7.44a2.371,2.371,0,0,0,.564,1.74A1.965,1.965,0,0,0,44.808-1.488ZM54.144-13.1a5.384,5.384,0,0,1,2.844.72,4.729,4.729,0,0,1,1.824,2.028,6.923,6.923,0,0,1,.636,3.06v1.272H50.64A4.854,4.854,0,0,0,51.756-2.7a3.894,3.894,0,0,0,2.988,1.14,9.333,9.333,0,0,0,2.172-.228,12.249,12.249,0,0,0,1.956-.66V-.6a10.018,10.018,0,0,1-1.944.636,11.1,11.1,0,0,1-2.28.2A6.79,6.79,0,0,1,51.42-.5a5.18,5.18,0,0,1-2.184-2.22,7.653,7.653,0,0,1-.78-3.612,8.488,8.488,0,0,1,.708-3.624,5.381,5.381,0,0,1,1.992-2.328A5.45,5.45,0,0,1,54.144-13.1Zm-.024,1.728a3.053,3.053,0,0,0-2.388.972,4.582,4.582,0,0,0-1.044,2.7H57.24a4.51,4.51,0,0,0-.768-2.652A2.715,2.715,0,0,0,54.12-11.376ZM68.712-13.1q.36,0,.78.036a5.309,5.309,0,0,1,.732.108l-.264,1.944q-.312-.072-.684-.12a5.541,5.541,0,0,0-.708-.048,3.426,3.426,0,0,0-1.848.54,3.889,3.889,0,0,0-1.38,1.512,4.768,4.768,0,0,0-.516,2.268V0H62.712V-12.864H64.44l.24,2.352h.1a6.477,6.477,0,0,1,1.608-1.824A3.672,3.672,0,0,1,68.712-13.1Zm11.232-4.584a1.26,1.26,0,0,1,.852.324,1.284,1.284,0,0,1,.372,1.02,1.29,1.29,0,0,1-.372,1.008,1.235,1.235,0,0,1-.852.336,1.252,1.252,0,0,1-.888-.336,1.314,1.314,0,0,1-.36-1.008,1.308,1.308,0,0,1,.36-1.02A1.279,1.279,0,0,1,79.944-17.688Zm1.032,4.824V0H78.864V-12.864Zm10.272-.24a4.877,4.877,0,0,1,3.48,1.116A4.8,4.8,0,0,1,95.9-8.376V0H93.816V-8.232q0-3.1-2.88-3.1a3.316,3.316,0,0,0-2.952,1.2,6.129,6.129,0,0,0-.816,3.456V0H85.056V-12.864h1.7l.312,1.752h.12a3.8,3.8,0,0,1,1.728-1.5A5.656,5.656,0,0,1,91.248-13.1ZM104.184-1.488a5.981,5.981,0,0,0,.984-.084,6.5,6.5,0,0,0,.816-.18V-.144a3.591,3.591,0,0,1-.96.276,7.038,7.038,0,0,1-1.2.108,4.873,4.873,0,0,1-1.86-.348,2.877,2.877,0,0,1-1.38-1.212,4.659,4.659,0,0,1-.528-2.424v-7.488H98.232V-12.24l1.848-.84.84-2.736h1.248v2.952h3.72v1.632h-3.72v7.44a2.371,2.371,0,0,0,.564,1.74A1.965,1.965,0,0,0,104.184-1.488ZM113.52-13.1a5.384,5.384,0,0,1,2.844.72,4.729,4.729,0,0,1,1.824,2.028,6.923,6.923,0,0,1,.636,3.06v1.272h-8.808A4.854,4.854,0,0,0,111.132-2.7a3.894,3.894,0,0,0,2.988,1.14,9.333,9.333,0,0,0,2.172-.228,12.249,12.249,0,0,0,1.956-.66V-.6A10.018,10.018,0,0,1,116.3.036a11.1,11.1,0,0,1-2.28.2A6.79,6.79,0,0,1,110.8-.5a5.18,5.18,0,0,1-2.184-2.22,7.653,7.653,0,0,1-.78-3.612,8.488,8.488,0,0,1,.708-3.624,5.381,5.381,0,0,1,1.992-2.328A5.45,5.45,0,0,1,113.52-13.1Zm-.024,1.728a3.053,3.053,0,0,0-2.388.972,4.582,4.582,0,0,0-1.044,2.7h6.552a4.51,4.51,0,0,0-.768-2.652A2.715,2.715,0,0,0,113.5-11.376ZM128.088-13.1q.36,0,.78.036a5.309,5.309,0,0,1,.732.108l-.264,1.944q-.312-.072-.684-.12a5.54,5.54,0,0,0-.708-.048,3.426,3.426,0,0,0-1.848.54,3.889,3.889,0,0,0-1.38,1.512,4.768,4.768,0,0,0-.516,2.268V0h-2.112V-12.864h1.728l.24,2.352h.1a6.477,6.477,0,0,1,1.608-1.824A3.672,3.672,0,0,1,128.088-13.1Zm10.1,0a4.877,4.877,0,0,1,3.48,1.116,4.8,4.8,0,0,1,1.176,3.612V0H140.76V-8.232q0-3.1-2.88-3.1a3.316,3.316,0,0,0-2.952,1.2,6.129,6.129,0,0,0-.816,3.456V0H132V-12.864h1.7l.312,1.752h.12a3.8,3.8,0,0,1,1.728-1.5A5.656,5.656,0,0,1,138.192-13.1Zm13.512.024a5.025,5.025,0,0,1,3.48,1.032,4.261,4.261,0,0,1,1.128,3.288V0h-1.536l-.408-1.824h-.1a5.945,5.945,0,0,1-1.764,1.56,5.385,5.385,0,0,1-2.556.5,4.494,4.494,0,0,1-2.9-.924A3.486,3.486,0,0,1,145.9-3.576a3.39,3.39,0,0,1,1.512-2.964,8.771,8.771,0,0,1,4.656-1.14l2.184-.072V-8.52a2.91,2.91,0,0,0-.7-2.232,2.848,2.848,0,0,0-1.968-.624,6.105,6.105,0,0,0-1.92.3,13.753,13.753,0,0,0-1.7.684l-.648-1.584a9.667,9.667,0,0,1,1.992-.78A8.823,8.823,0,0,1,151.7-13.08Zm.624,6.864A6.394,6.394,0,0,0,149-5.448a2.207,2.207,0,0,0-.924,1.9,1.866,1.866,0,0,0,.66,1.584,2.709,2.709,0,0,0,1.692.5,4.093,4.093,0,0,0,2.712-.9,3.4,3.4,0,0,0,1.08-2.772V-6.288Zm12.264,4.728a5.981,5.981,0,0,0,.984-.084,6.5,6.5,0,0,0,.816-.18V-.144a3.591,3.591,0,0,1-.96.276,7.038,7.038,0,0,1-1.2.108,4.873,4.873,0,0,1-1.86-.348,2.877,2.877,0,0,1-1.38-1.212,4.659,4.659,0,0,1-.528-2.424v-7.488H158.64V-12.24l1.848-.84.84-2.736h1.248v2.952h3.72v1.632h-3.72v7.44a2.371,2.371,0,0,0,.564,1.74A1.965,1.965,0,0,0,164.592-1.488Zm5.448-16.2a1.26,1.26,0,0,1,.852.324,1.284,1.284,0,0,1,.372,1.02,1.29,1.29,0,0,1-.372,1.008,1.235,1.235,0,0,1-.852.336,1.252,1.252,0,0,1-.888-.336,1.314,1.314,0,0,1-.36-1.008,1.307,1.307,0,0,1,.36-1.02A1.279,1.279,0,0,1,170.04-17.688Zm1.032,4.824V0H168.96V-12.864Zm15.264,6.408a7.013,7.013,0,0,1-1.62,4.944A5.675,5.675,0,0,1,180.336.24,5.9,5.9,0,0,1,177.3-.54a5.432,5.432,0,0,1-2.1-2.28,7.9,7.9,0,0,1-.768-3.636,6.956,6.956,0,0,1,1.608-4.92,5.676,5.676,0,0,1,4.368-1.728,5.99,5.99,0,0,1,3.084.78,5.386,5.386,0,0,1,2.088,2.256A7.856,7.856,0,0,1,186.336-6.456Zm-9.72,0a6.368,6.368,0,0,0,.9,3.612,3.212,3.212,0,0,0,2.868,1.332,3.218,3.218,0,0,0,2.856-1.332,6.3,6.3,0,0,0,.912-3.612,6.128,6.128,0,0,0-.912-3.576,3.277,3.277,0,0,0-2.88-1.3,3.214,3.214,0,0,0-2.856,1.3A6.255,6.255,0,0,0,176.616-6.456ZM195.864-13.1a4.877,4.877,0,0,1,3.48,1.116,4.8,4.8,0,0,1,1.176,3.612V0h-2.088V-8.232q0-3.1-2.88-3.1a3.316,3.316,0,0,0-2.952,1.2,6.129,6.129,0,0,0-.816,3.456V0h-2.112V-12.864h1.7l.312,1.752h.12a3.8,3.8,0,0,1,1.728-1.5A5.656,5.656,0,0,1,195.864-13.1Zm13.512.024a5.025,5.025,0,0,1,3.48,1.032,4.261,4.261,0,0,1,1.128,3.288V0h-1.536l-.408-1.824h-.1a5.945,5.945,0,0,1-1.764,1.56,5.385,5.385,0,0,1-2.556.5,4.494,4.494,0,0,1-2.9-.924,3.486,3.486,0,0,1-1.152-2.892A3.39,3.39,0,0,1,205.08-6.54a8.771,8.771,0,0,1,4.656-1.14l2.184-.072V-8.52a2.91,2.91,0,0,0-.7-2.232,2.848,2.848,0,0,0-1.968-.624,6.105,6.105,0,0,0-1.92.3,13.753,13.753,0,0,0-1.7.684l-.648-1.584a9.667,9.667,0,0,1,1.992-.78A8.823,8.823,0,0,1,209.376-13.08ZM210-6.216a6.394,6.394,0,0,0-3.324.768,2.207,2.207,0,0,0-.924,1.9,1.866,1.866,0,0,0,.66,1.584,2.709,2.709,0,0,0,1.692.5,4.093,4.093,0,0,0,2.712-.9,3.4,3.4,0,0,0,1.08-2.772V-6.288ZM220.08,0h-2.112V-18.24h2.112Zm15.48.24a6.458,6.458,0,0,1-3.036-.7,4.876,4.876,0,0,1-2.088-2.16,8.138,8.138,0,0,1-.756-3.744,8.207,8.207,0,0,1,.792-3.864,5.016,5.016,0,0,1,2.148-2.184,6.657,6.657,0,0,1,3.084-.7,8.661,8.661,0,0,1,1.9.2,6.6,6.6,0,0,1,1.488.492l-.648,1.752a12.489,12.489,0,0,0-1.344-.408,5.953,5.953,0,0,0-1.44-.192q-3.792,0-3.792,4.872a5.878,5.878,0,0,0,.924,3.564,3.213,3.213,0,0,0,2.748,1.236A7.2,7.2,0,0,0,237.4-1.8a9.12,9.12,0,0,0,1.476-.528V-.456a6.038,6.038,0,0,1-1.428.516A8.5,8.5,0,0,1,235.56.24Zm17.544-6.7a7.013,7.013,0,0,1-1.62,4.944A5.675,5.675,0,0,1,247.1.24a5.9,5.9,0,0,1-3.036-.78,5.432,5.432,0,0,1-2.1-2.28,7.9,7.9,0,0,1-.768-3.636,6.956,6.956,0,0,1,1.608-4.92,5.676,5.676,0,0,1,4.368-1.728,5.99,5.99,0,0,1,3.084.78,5.386,5.386,0,0,1,2.088,2.256A7.856,7.856,0,0,1,253.1-6.456Zm-9.72,0a6.368,6.368,0,0,0,.9,3.612,3.212,3.212,0,0,0,2.868,1.332,3.218,3.218,0,0,0,2.856-1.332,6.3,6.3,0,0,0,.912-3.612,6.128,6.128,0,0,0-.912-3.576,3.277,3.277,0,0,0-2.88-1.3,3.214,3.214,0,0,0-2.856,1.3A6.255,6.255,0,0,0,243.384-6.456Zm24.24,0A7.013,7.013,0,0,1,266-1.512,5.675,5.675,0,0,1,261.624.24a5.9,5.9,0,0,1-3.036-.78,5.432,5.432,0,0,1-2.1-2.28,7.9,7.9,0,0,1-.768-3.636,6.956,6.956,0,0,1,1.608-4.92A5.676,5.676,0,0,1,261.7-13.1a5.99,5.99,0,0,1,3.084.78,5.386,5.386,0,0,1,2.088,2.256A7.856,7.856,0,0,1,267.624-6.456Zm-9.72,0a6.368,6.368,0,0,0,.9,3.612,3.212,3.212,0,0,0,2.868,1.332,3.218,3.218,0,0,0,2.856-1.332,6.3,6.3,0,0,0,.912-3.612,6.128,6.128,0,0,0-.912-3.576,3.277,3.277,0,0,0-2.88-1.3,3.214,3.214,0,0,0-2.856,1.3A6.254,6.254,0,0,0,257.9-6.456ZM277.08-13.1a4.844,4.844,0,0,1,3.828,1.656,7.394,7.394,0,0,1,1.452,4.992,7.508,7.508,0,0,1-1.452,4.992,4.809,4.809,0,0,1-3.852,1.7,4.846,4.846,0,0,1-2.46-.564,4.957,4.957,0,0,1-1.524-1.308h-.144q.048.408.1,1.032t.048,1.08V5.76H270.96V-12.864h1.728l.288,1.752h.1a4.943,4.943,0,0,1,1.512-1.416A4.725,4.725,0,0,1,277.08-13.1Zm-.384,1.776a3.2,3.2,0,0,0-2.772,1.1,5.939,5.939,0,0,0-.852,3.36v.408a7.093,7.093,0,0,0,.78,3.66,3.1,3.1,0,0,0,2.892,1.284,2.864,2.864,0,0,0,1.932-.648A3.873,3.873,0,0,0,279.8-3.924a8.072,8.072,0,0,0,.372-2.556,6.432,6.432,0,0,0-.852-3.528A2.908,2.908,0,0,0,276.7-11.328ZM290.688-13.1a5.384,5.384,0,0,1,2.844.72,4.728,4.728,0,0,1,1.824,2.028,6.923,6.923,0,0,1,.636,3.06v1.272h-8.808A4.854,4.854,0,0,0,288.3-2.7a3.894,3.894,0,0,0,2.988,1.14,9.333,9.333,0,0,0,2.172-.228,12.249,12.249,0,0,0,1.956-.66V-.6a10.018,10.018,0,0,1-1.944.636,11.1,11.1,0,0,1-2.28.2A6.79,6.79,0,0,1,287.964-.5a5.18,5.18,0,0,1-2.184-2.22A7.653,7.653,0,0,1,285-6.336a8.487,8.487,0,0,1,.708-3.624,5.381,5.381,0,0,1,1.992-2.328A5.45,5.45,0,0,1,290.688-13.1Zm-.024,1.728a3.053,3.053,0,0,0-2.388.972,4.582,4.582,0,0,0-1.044,2.7h6.552a4.51,4.51,0,0,0-.768-2.652A2.715,2.715,0,0,0,290.664-11.376ZM305.256-13.1q.36,0,.78.036a5.31,5.31,0,0,1,.732.108l-.264,1.944q-.312-.072-.684-.12a5.541,5.541,0,0,0-.708-.048,3.426,3.426,0,0,0-1.848.54,3.888,3.888,0,0,0-1.38,1.512,4.768,4.768,0,0,0-.516,2.268V0h-2.112V-12.864h1.728l.24,2.352h.1a6.477,6.477,0,0,1,1.608-1.824A3.672,3.672,0,0,1,305.256-13.1Zm8.3.024a5.025,5.025,0,0,1,3.48,1.032,4.261,4.261,0,0,1,1.128,3.288V0h-1.536l-.408-1.824h-.1a5.945,5.945,0,0,1-1.764,1.56,5.385,5.385,0,0,1-2.556.5,4.494,4.494,0,0,1-2.9-.924,3.486,3.486,0,0,1-1.152-2.892,3.39,3.39,0,0,1,1.512-2.964,8.771,8.771,0,0,1,4.656-1.14l2.184-.072V-8.52a2.91,2.91,0,0,0-.7-2.232,2.848,2.848,0,0,0-1.968-.624,6.1,6.1,0,0,0-1.92.3,13.752,13.752,0,0,0-1.7.684l-.648-1.584a9.667,9.667,0,0,1,1.992-.78A8.822,8.822,0,0,1,313.56-13.08Zm.624,6.864a6.394,6.394,0,0,0-3.324.768,2.207,2.207,0,0,0-.924,1.9,1.866,1.866,0,0,0,.66,1.584,2.71,2.71,0,0,0,1.692.5,4.093,4.093,0,0,0,2.712-.9,3.4,3.4,0,0,0,1.08-2.772V-6.288Zm12.264,4.728a5.981,5.981,0,0,0,.984-.084,6.5,6.5,0,0,0,.816-.18V-.144a3.591,3.591,0,0,1-.96.276,7.038,7.038,0,0,1-1.2.108,4.873,4.873,0,0,1-1.86-.348,2.878,2.878,0,0,1-1.38-1.212,4.659,4.659,0,0,1-.528-2.424v-7.488H320.5V-12.24l1.848-.84.84-2.736h1.248v2.952h3.72v1.632h-3.72v7.44A2.371,2.371,0,0,0,325-2.052,1.965,1.965,0,0,0,326.448-1.488Zm5.448-16.2a1.26,1.26,0,0,1,.852.324,1.284,1.284,0,0,1,.372,1.02,1.29,1.29,0,0,1-.372,1.008A1.235,1.235,0,0,1,331.9-15a1.252,1.252,0,0,1-.888-.336,1.314,1.314,0,0,1-.36-1.008,1.308,1.308,0,0,1,.36-1.02A1.279,1.279,0,0,1,331.9-17.688Zm1.032,4.824V0h-2.112V-12.864Zm15.264,6.408a7.013,7.013,0,0,1-1.62,4.944A5.675,5.675,0,0,1,342.192.24a5.9,5.9,0,0,1-3.036-.78,5.432,5.432,0,0,1-2.1-2.28,7.9,7.9,0,0,1-.768-3.636,6.956,6.956,0,0,1,1.608-4.92,5.676,5.676,0,0,1,4.368-1.728,5.99,5.99,0,0,1,3.084.78,5.386,5.386,0,0,1,2.088,2.256A7.856,7.856,0,0,1,348.192-6.456Zm-9.72,0a6.368,6.368,0,0,0,.9,3.612,3.212,3.212,0,0,0,2.868,1.332A3.218,3.218,0,0,0,345.1-2.844a6.3,6.3,0,0,0,.912-3.612,6.128,6.128,0,0,0-.912-3.576,3.277,3.277,0,0,0-2.88-1.3,3.214,3.214,0,0,0-2.856,1.3A6.254,6.254,0,0,0,338.472-6.456ZM357.72-13.1a4.877,4.877,0,0,1,3.48,1.116,4.8,4.8,0,0,1,1.176,3.612V0h-2.088V-8.232q0-3.1-2.88-3.1a3.317,3.317,0,0,0-2.952,1.2,6.129,6.129,0,0,0-.816,3.456V0h-2.112V-12.864h1.7l.312,1.752h.12a3.8,3.8,0,0,1,1.728-1.5A5.656,5.656,0,0,1,357.72-13.1Z" transform="translate(1272 843)" fill="#0f0f0f"/>
    <path id="Path_132" data-name="Path 132" d="M9.672-15.48a5.42,5.42,0,0,0-4.344,1.848A7.529,7.529,0,0,0,3.744-8.568,7.911,7.911,0,0,0,5.22-3.516a5.31,5.31,0,0,0,4.428,1.86,11.4,11.4,0,0,0,2.136-.192,19.62,19.62,0,0,0,1.968-.48V-.456a10.472,10.472,0,0,1-1.98.528A15.23,15.23,0,0,1,9.336.24,8.186,8.186,0,0,1,4.968-.84,6.649,6.649,0,0,1,2.34-3.912a11.55,11.55,0,0,1-.876-4.68,10.469,10.469,0,0,1,.948-4.572,7.134,7.134,0,0,1,2.8-3.1A8.529,8.529,0,0,1,9.7-17.376a10.449,10.449,0,0,1,4.728,1.008l-.864,1.824a13.616,13.616,0,0,0-1.764-.648A7.451,7.451,0,0,0,9.672-15.48Zm12.408,2.4a5.025,5.025,0,0,1,3.48,1.032A4.261,4.261,0,0,1,26.688-8.76V0H25.152l-.408-1.824h-.1a5.945,5.945,0,0,1-1.764,1.56,5.385,5.385,0,0,1-2.556.5,4.494,4.494,0,0,1-2.9-.924,3.486,3.486,0,0,1-1.152-2.892A3.39,3.39,0,0,1,17.784-6.54,8.771,8.771,0,0,1,22.44-7.68l2.184-.072V-8.52a2.91,2.91,0,0,0-.7-2.232,2.848,2.848,0,0,0-1.968-.624,6.1,6.1,0,0,0-1.92.3,13.752,13.752,0,0,0-1.7.684l-.648-1.584a9.667,9.667,0,0,1,1.992-.78A8.822,8.822,0,0,1,22.08-13.08ZM22.7-6.216a6.394,6.394,0,0,0-3.324.768,2.207,2.207,0,0,0-.924,1.9,1.866,1.866,0,0,0,.66,1.584,2.709,2.709,0,0,0,1.692.5,4.093,4.093,0,0,0,2.712-.9A3.4,3.4,0,0,0,24.6-5.136V-6.288ZM36.672-13.1q.36,0,.78.036a5.309,5.309,0,0,1,.732.108l-.264,1.944q-.312-.072-.684-.12a5.541,5.541,0,0,0-.708-.048,3.426,3.426,0,0,0-1.848.54A3.889,3.889,0,0,0,33.3-9.132a4.768,4.768,0,0,0-.516,2.268V0H30.672V-12.864H32.4l.24,2.352h.1a6.477,6.477,0,0,1,1.608-1.824A3.672,3.672,0,0,1,36.672-13.1Zm8.4,0a5.385,5.385,0,0,1,2.844.72,4.729,4.729,0,0,1,1.824,2.028,6.923,6.923,0,0,1,.636,3.06v1.272H41.568A4.854,4.854,0,0,0,42.684-2.7a3.894,3.894,0,0,0,2.988,1.14,9.333,9.333,0,0,0,2.172-.228,12.249,12.249,0,0,0,1.956-.66V-.6a10.018,10.018,0,0,1-1.944.636,11.1,11.1,0,0,1-2.28.2A6.79,6.79,0,0,1,42.348-.5a5.18,5.18,0,0,1-2.184-2.22,7.653,7.653,0,0,1-.78-3.612,8.488,8.488,0,0,1,.708-3.624,5.381,5.381,0,0,1,1.992-2.328A5.45,5.45,0,0,1,45.072-13.1Zm-.024,1.728a3.053,3.053,0,0,0-2.388.972,4.582,4.582,0,0,0-1.044,2.7h6.552a4.51,4.51,0,0,0-.768-2.652A2.715,2.715,0,0,0,45.048-11.376ZM58.608-13.1a5.384,5.384,0,0,1,2.844.72,4.729,4.729,0,0,1,1.824,2.028,6.923,6.923,0,0,1,.636,3.06v1.272H55.1A4.854,4.854,0,0,0,56.22-2.7a3.894,3.894,0,0,0,2.988,1.14,9.333,9.333,0,0,0,2.172-.228,12.249,12.249,0,0,0,1.956-.66V-.6a10.018,10.018,0,0,1-1.944.636,11.1,11.1,0,0,1-2.28.2A6.79,6.79,0,0,1,55.884-.5,5.18,5.18,0,0,1,53.7-2.724a7.653,7.653,0,0,1-.78-3.612,8.488,8.488,0,0,1,.708-3.624,5.381,5.381,0,0,1,1.992-2.328A5.45,5.45,0,0,1,58.608-13.1Zm-.024,1.728A3.053,3.053,0,0,0,56.2-10.4a4.582,4.582,0,0,0-1.044,2.7H61.7a4.51,4.51,0,0,0-.768-2.652A2.715,2.715,0,0,0,58.584-11.376ZM73.176-13.1q.36,0,.78.036a5.31,5.31,0,0,1,.732.108l-.264,1.944q-.312-.072-.684-.12a5.541,5.541,0,0,0-.708-.048,3.426,3.426,0,0,0-1.848.54A3.889,3.889,0,0,0,69.8-9.132a4.768,4.768,0,0,0-.516,2.268V0H67.176V-12.864H68.9l.24,2.352h.1a6.477,6.477,0,0,1,1.608-1.824A3.672,3.672,0,0,1,73.176-13.1ZM97.344-8.736q0,4.344-2.364,6.54A9.31,9.31,0,0,1,88.392,0H83.616V-17.136H88.9a9.822,9.822,0,0,1,4.488.96,6.779,6.779,0,0,1,2.928,2.82A9.419,9.419,0,0,1,97.344-8.736Zm-2.28.072q0-3.432-1.692-5.028a6.709,6.709,0,0,0-4.788-1.6H85.776v13.44H88.1Q95.064-1.848,95.064-8.664Zm10.752-4.44a5.384,5.384,0,0,1,2.844.72,4.729,4.729,0,0,1,1.824,2.028,6.923,6.923,0,0,1,.636,3.06v1.272h-8.808A4.854,4.854,0,0,0,103.428-2.7a3.894,3.894,0,0,0,2.988,1.14,9.333,9.333,0,0,0,2.172-.228,12.249,12.249,0,0,0,1.956-.66V-.6A10.018,10.018,0,0,1,108.6.036a11.1,11.1,0,0,1-2.28.2A6.79,6.79,0,0,1,103.092-.5a5.18,5.18,0,0,1-2.184-2.22,7.653,7.653,0,0,1-.78-3.612,8.488,8.488,0,0,1,.708-3.624,5.381,5.381,0,0,1,1.992-2.328A5.45,5.45,0,0,1,105.816-13.1Zm-.024,1.728a3.053,3.053,0,0,0-2.388.972,4.582,4.582,0,0,0-1.044,2.7h6.552a4.51,4.51,0,0,0-.768-2.652A2.715,2.715,0,0,0,105.792-11.376ZM116.736,0l-4.872-12.864h2.256l2.736,7.584q.192.528.408,1.176t.384,1.236a10.171,10.171,0,0,1,.24,1h.1q.1-.408.276-1.008t.408-1.248q.228-.648.4-1.152l2.736-7.584h2.256L119.16,0Zm14.328-13.1a5.385,5.385,0,0,1,2.844.72,4.729,4.729,0,0,1,1.824,2.028,6.923,6.923,0,0,1,.636,3.06v1.272H127.56A4.854,4.854,0,0,0,128.676-2.7a3.894,3.894,0,0,0,2.988,1.14,9.333,9.333,0,0,0,2.172-.228,12.249,12.249,0,0,0,1.956-.66V-.6a10.018,10.018,0,0,1-1.944.636,11.1,11.1,0,0,1-2.28.2A6.79,6.79,0,0,1,128.34-.5a5.18,5.18,0,0,1-2.184-2.22,7.653,7.653,0,0,1-.78-3.612,8.488,8.488,0,0,1,.708-3.624,5.381,5.381,0,0,1,1.992-2.328A5.45,5.45,0,0,1,131.064-13.1Zm-.024,1.728a3.053,3.053,0,0,0-2.388.972,4.582,4.582,0,0,0-1.044,2.7h6.552a4.51,4.51,0,0,0-.768-2.652A2.715,2.715,0,0,0,131.04-11.376ZM141.744,0h-2.112V-18.24h2.112Zm15.264-6.456a7.013,7.013,0,0,1-1.62,4.944A5.675,5.675,0,0,1,151.008.24a5.9,5.9,0,0,1-3.036-.78,5.432,5.432,0,0,1-2.1-2.28,7.9,7.9,0,0,1-.768-3.636,6.956,6.956,0,0,1,1.608-4.92A5.676,5.676,0,0,1,151.08-13.1a5.99,5.99,0,0,1,3.084.78,5.386,5.386,0,0,1,2.088,2.256A7.856,7.856,0,0,1,157.008-6.456Zm-9.72,0a6.368,6.368,0,0,0,.9,3.612,3.212,3.212,0,0,0,2.868,1.332,3.218,3.218,0,0,0,2.856-1.332,6.3,6.3,0,0,0,.912-3.612,6.128,6.128,0,0,0-.912-3.576,3.277,3.277,0,0,0-2.88-1.3,3.214,3.214,0,0,0-2.856,1.3A6.255,6.255,0,0,0,147.288-6.456ZM166.464-13.1a4.844,4.844,0,0,1,3.828,1.656,7.394,7.394,0,0,1,1.452,4.992,7.508,7.508,0,0,1-1.452,4.992A4.809,4.809,0,0,1,166.44.24a4.846,4.846,0,0,1-2.46-.564,4.956,4.956,0,0,1-1.524-1.308h-.144q.048.408.1,1.032t.048,1.08V5.76h-2.112V-12.864h1.728l.288,1.752h.1a4.943,4.943,0,0,1,1.512-1.416A4.725,4.725,0,0,1,166.464-13.1Zm-.384,1.776a3.2,3.2,0,0,0-2.772,1.1,5.938,5.938,0,0,0-.852,3.36v.408a7.093,7.093,0,0,0,.78,3.66,3.1,3.1,0,0,0,2.892,1.284,2.864,2.864,0,0,0,1.932-.648,3.873,3.873,0,0,0,1.128-1.764,8.073,8.073,0,0,0,.372-2.556,6.432,6.432,0,0,0-.852-3.528A2.908,2.908,0,0,0,166.08-11.328ZM189.216-13.1a4.349,4.349,0,0,1,3.264,1.116,5.065,5.065,0,0,1,1.08,3.612V0h-2.088V-8.28q0-3.048-2.616-3.048a3.119,3.119,0,0,0-2.676,1.08,5.21,5.21,0,0,0-.8,3.144V0h-2.088V-8.28q0-3.048-2.64-3.048a2.907,2.907,0,0,0-2.688,1.2,6.6,6.6,0,0,0-.744,3.456V0H175.1V-12.864h1.7l.312,1.752h.12a3.753,3.753,0,0,1,1.62-1.5,4.935,4.935,0,0,1,2.172-.492q3.024,0,3.936,2.16h.12a3.991,3.991,0,0,1,1.764-1.632A5.46,5.46,0,0,1,189.216-13.1Zm13.3,0a5.385,5.385,0,0,1,2.844.72,4.729,4.729,0,0,1,1.824,2.028,6.923,6.923,0,0,1,.636,3.06v1.272h-8.808A4.854,4.854,0,0,0,200.124-2.7a3.894,3.894,0,0,0,2.988,1.14,9.333,9.333,0,0,0,2.172-.228,12.249,12.249,0,0,0,1.956-.66V-.6A10.018,10.018,0,0,1,205.3.036a11.1,11.1,0,0,1-2.28.2A6.79,6.79,0,0,1,199.788-.5a5.18,5.18,0,0,1-2.184-2.22,7.653,7.653,0,0,1-.78-3.612,8.488,8.488,0,0,1,.708-3.624,5.381,5.381,0,0,1,1.992-2.328A5.45,5.45,0,0,1,202.512-13.1Zm-.024,1.728a3.053,3.053,0,0,0-2.388.972,4.582,4.582,0,0,0-1.044,2.7h6.552a4.51,4.51,0,0,0-.768-2.652A2.715,2.715,0,0,0,202.488-11.376ZM217.272-13.1a4.877,4.877,0,0,1,3.48,1.116,4.8,4.8,0,0,1,1.176,3.612V0H219.84V-8.232q0-3.1-2.88-3.1a3.316,3.316,0,0,0-2.952,1.2,6.129,6.129,0,0,0-.816,3.456V0H211.08V-12.864h1.7l.312,1.752h.12a3.8,3.8,0,0,1,1.728-1.5A5.656,5.656,0,0,1,217.272-13.1ZM230.208-1.488a5.981,5.981,0,0,0,.984-.084,6.5,6.5,0,0,0,.816-.18V-.144a3.591,3.591,0,0,1-.96.276,7.038,7.038,0,0,1-1.2.108,4.873,4.873,0,0,1-1.86-.348,2.877,2.877,0,0,1-1.38-1.212,4.659,4.659,0,0,1-.528-2.424v-7.488h-1.824V-12.24l1.848-.84.84-2.736h1.248v2.952h3.72v1.632h-3.72v7.44a2.371,2.371,0,0,0,.564,1.74A1.965,1.965,0,0,0,230.208-1.488Z" transform="translate(471 1011)" fill="#0f0f0f"/>
    <path id="Path_130" data-name="Path 130" d="M4.488,0H2.328V-17.136H11.9v1.9H4.488v6.072h6.96v1.9H4.488Zm20.76-12.864V0H23.52l-.312-1.7h-.1A3.665,3.665,0,0,1,21.384-.228,5.963,5.963,0,0,1,19.032.24a4.915,4.915,0,0,1-3.5-1.116A4.722,4.722,0,0,1,14.352-4.44v-8.424h2.136v8.28q0,3.072,2.856,3.072a3.35,3.35,0,0,0,2.964-1.2,6.059,6.059,0,0,0,.828-3.456v-6.7ZM31.44,0H29.328V-18.24H31.44Zm6.192,0H35.52V-18.24h2.112Zm15.48.24a6.458,6.458,0,0,1-3.036-.7,4.876,4.876,0,0,1-2.088-2.16,8.138,8.138,0,0,1-.756-3.744,8.207,8.207,0,0,1,.792-3.864,5.016,5.016,0,0,1,2.148-2.184,6.657,6.657,0,0,1,3.084-.7,8.661,8.661,0,0,1,1.9.2,6.6,6.6,0,0,1,1.488.492l-.648,1.752a12.488,12.488,0,0,0-1.344-.408,5.953,5.953,0,0,0-1.44-.192q-3.792,0-3.792,4.872A5.877,5.877,0,0,0,50.34-2.82a3.213,3.213,0,0,0,2.748,1.236,7.2,7.2,0,0,0,1.86-.216,9.121,9.121,0,0,0,1.476-.528V-.456A6.038,6.038,0,0,1,55,.06,8.5,8.5,0,0,1,53.112.24ZM64.344-13.08a5.025,5.025,0,0,1,3.48,1.032A4.261,4.261,0,0,1,68.952-8.76V0H67.416l-.408-1.824h-.1a5.945,5.945,0,0,1-1.764,1.56,5.385,5.385,0,0,1-2.556.5,4.494,4.494,0,0,1-2.9-.924,3.486,3.486,0,0,1-1.152-2.892A3.39,3.39,0,0,1,60.048-6.54,8.771,8.771,0,0,1,64.7-7.68l2.184-.072V-8.52a2.91,2.91,0,0,0-.7-2.232,2.848,2.848,0,0,0-1.968-.624,6.1,6.1,0,0,0-1.92.3,13.752,13.752,0,0,0-1.7.684l-.648-1.584a9.667,9.667,0,0,1,1.992-.78A8.822,8.822,0,0,1,64.344-13.08Zm.624,6.864a6.394,6.394,0,0,0-3.324.768,2.207,2.207,0,0,0-.924,1.9,1.866,1.866,0,0,0,.66,1.584,2.709,2.709,0,0,0,1.692.5,4.093,4.093,0,0,0,2.712-.9,3.4,3.4,0,0,0,1.08-2.772V-6.288ZM78.936-13.1q.36,0,.78.036a5.31,5.31,0,0,1,.732.108l-.264,1.944q-.312-.072-.684-.12a5.54,5.54,0,0,0-.708-.048,3.426,3.426,0,0,0-1.848.54,3.889,3.889,0,0,0-1.38,1.512,4.768,4.768,0,0,0-.516,2.268V0H72.936V-12.864h1.728l.24,2.352H75a6.477,6.477,0,0,1,1.608-1.824A3.672,3.672,0,0,1,78.936-13.1Zm8.4,0a5.384,5.384,0,0,1,2.844.72A4.729,4.729,0,0,1,92-10.356,6.923,6.923,0,0,1,92.64-7.3v1.272H83.832A4.854,4.854,0,0,0,84.948-2.7a3.894,3.894,0,0,0,2.988,1.14,9.333,9.333,0,0,0,2.172-.228,12.249,12.249,0,0,0,1.956-.66V-.6A10.018,10.018,0,0,1,90.12.036a11.1,11.1,0,0,1-2.28.2A6.79,6.79,0,0,1,84.612-.5a5.18,5.18,0,0,1-2.184-2.22,7.653,7.653,0,0,1-.78-3.612,8.488,8.488,0,0,1,.708-3.624,5.381,5.381,0,0,1,1.992-2.328A5.45,5.45,0,0,1,87.336-13.1Zm-.024,1.728a3.053,3.053,0,0,0-2.388.972A4.582,4.582,0,0,0,83.88-7.7h6.552a4.51,4.51,0,0,0-.768-2.652A2.715,2.715,0,0,0,87.312-11.376Zm13.56-1.728a5.384,5.384,0,0,1,2.844.72,4.729,4.729,0,0,1,1.824,2.028,6.923,6.923,0,0,1,.636,3.06v1.272H97.368A4.854,4.854,0,0,0,98.484-2.7a3.894,3.894,0,0,0,2.988,1.14,9.333,9.333,0,0,0,2.172-.228,12.249,12.249,0,0,0,1.956-.66V-.6a10.018,10.018,0,0,1-1.944.636,11.1,11.1,0,0,1-2.28.2A6.79,6.79,0,0,1,98.148-.5a5.18,5.18,0,0,1-2.184-2.22,7.653,7.653,0,0,1-.78-3.612,8.488,8.488,0,0,1,.708-3.624,5.381,5.381,0,0,1,1.992-2.328A5.45,5.45,0,0,1,100.872-13.1Zm-.024,1.728a3.053,3.053,0,0,0-2.388.972,4.582,4.582,0,0,0-1.044,2.7h6.552a4.51,4.51,0,0,0-.768-2.652A2.715,2.715,0,0,0,100.848-11.376ZM115.44-13.1q.36,0,.78.036a5.31,5.31,0,0,1,.732.108l-.264,1.944q-.312-.072-.684-.12a5.54,5.54,0,0,0-.708-.048,3.426,3.426,0,0,0-1.848.54,3.889,3.889,0,0,0-1.38,1.512,4.768,4.768,0,0,0-.516,2.268V0H109.44V-12.864h1.728l.24,2.352h.1a6.477,6.477,0,0,1,1.608-1.824A3.672,3.672,0,0,1,115.44-13.1Zm16.272,0a4.844,4.844,0,0,1,3.828,1.656,7.394,7.394,0,0,1,1.452,4.992,7.508,7.508,0,0,1-1.452,4.992,4.809,4.809,0,0,1-3.852,1.7,4.846,4.846,0,0,1-2.46-.564A4.956,4.956,0,0,1,127.7-1.632h-.144q.048.408.1,1.032T127.7.48V5.76h-2.112V-12.864h1.728l.288,1.752h.1a4.943,4.943,0,0,1,1.512-1.416A4.725,4.725,0,0,1,131.712-13.1Zm-.384,1.776a3.2,3.2,0,0,0-2.772,1.1,5.938,5.938,0,0,0-.852,3.36v.408a7.093,7.093,0,0,0,.78,3.66,3.1,3.1,0,0,0,2.892,1.284,2.864,2.864,0,0,0,1.932-.648,3.873,3.873,0,0,0,1.128-1.764,8.073,8.073,0,0,0,.372-2.556,6.432,6.432,0,0,0-.852-3.528A2.908,2.908,0,0,0,131.328-11.328Zm20.208,4.872a7.013,7.013,0,0,1-1.62,4.944A5.675,5.675,0,0,1,145.536.24,5.9,5.9,0,0,1,142.5-.54a5.432,5.432,0,0,1-2.1-2.28,7.9,7.9,0,0,1-.768-3.636,6.956,6.956,0,0,1,1.608-4.92,5.676,5.676,0,0,1,4.368-1.728,5.99,5.99,0,0,1,3.084.78,5.386,5.386,0,0,1,2.088,2.256A7.856,7.856,0,0,1,151.536-6.456Zm-9.72,0a6.368,6.368,0,0,0,.9,3.612,3.212,3.212,0,0,0,2.868,1.332,3.218,3.218,0,0,0,2.856-1.332,6.3,6.3,0,0,0,.912-3.612,6.128,6.128,0,0,0-.912-3.576,3.277,3.277,0,0,0-2.88-1.3,3.214,3.214,0,0,0-2.856,1.3A6.255,6.255,0,0,0,141.816-6.456Zm17.352,4.968a5.981,5.981,0,0,0,.984-.084,6.5,6.5,0,0,0,.816-.18V-.144a3.591,3.591,0,0,1-.96.276,7.038,7.038,0,0,1-1.2.108,4.873,4.873,0,0,1-1.86-.348,2.877,2.877,0,0,1-1.38-1.212,4.659,4.659,0,0,1-.528-2.424v-7.488h-1.824V-12.24l1.848-.84.84-2.736h1.248v2.952h3.72v1.632h-3.72v7.44a2.371,2.371,0,0,0,.564,1.74A1.965,1.965,0,0,0,159.168-1.488ZM168.5-13.1a5.385,5.385,0,0,1,2.844.72,4.729,4.729,0,0,1,1.824,2.028,6.923,6.923,0,0,1,.636,3.06v1.272H165A4.854,4.854,0,0,0,166.116-2.7,3.894,3.894,0,0,0,169.1-1.56a9.333,9.333,0,0,0,2.172-.228,12.249,12.249,0,0,0,1.956-.66V-.6a10.018,10.018,0,0,1-1.944.636,11.1,11.1,0,0,1-2.28.2A6.79,6.79,0,0,1,165.78-.5a5.18,5.18,0,0,1-2.184-2.22,7.653,7.653,0,0,1-.78-3.612,8.488,8.488,0,0,1,.708-3.624,5.381,5.381,0,0,1,1.992-2.328A5.45,5.45,0,0,1,168.5-13.1Zm-.024,1.728a3.053,3.053,0,0,0-2.388.972,4.582,4.582,0,0,0-1.044,2.7H171.6a4.51,4.51,0,0,0-.768-2.652A2.715,2.715,0,0,0,168.48-11.376ZM183.264-13.1a4.877,4.877,0,0,1,3.48,1.116,4.8,4.8,0,0,1,1.176,3.612V0h-2.088V-8.232q0-3.1-2.88-3.1a3.316,3.316,0,0,0-2.952,1.2,6.129,6.129,0,0,0-.816,3.456V0h-2.112V-12.864h1.7l.312,1.752h.12a3.8,3.8,0,0,1,1.728-1.5A5.656,5.656,0,0,1,183.264-13.1ZM196.2-1.488a5.981,5.981,0,0,0,.984-.084,6.5,6.5,0,0,0,.816-.18V-.144a3.591,3.591,0,0,1-.96.276,7.038,7.038,0,0,1-1.2.108,4.873,4.873,0,0,1-1.86-.348A2.877,2.877,0,0,1,192.6-1.32a4.659,4.659,0,0,1-.528-2.424v-7.488h-1.824V-12.24l1.848-.84.84-2.736h1.248v2.952h3.72v1.632h-3.72v7.44a2.371,2.371,0,0,0,.564,1.74A1.965,1.965,0,0,0,196.2-1.488Zm5.448-16.2a1.26,1.26,0,0,1,.852.324,1.284,1.284,0,0,1,.372,1.02,1.29,1.29,0,0,1-.372,1.008,1.235,1.235,0,0,1-.852.336,1.252,1.252,0,0,1-.888-.336,1.314,1.314,0,0,1-.36-1.008,1.307,1.307,0,0,1,.36-1.02A1.279,1.279,0,0,1,201.648-17.688Zm1.032,4.824V0h-2.112V-12.864Zm8.952-.216a5.025,5.025,0,0,1,3.48,1.032A4.261,4.261,0,0,1,216.24-8.76V0H214.7L214.3-1.824h-.1a5.945,5.945,0,0,1-1.764,1.56,5.385,5.385,0,0,1-2.556.5,4.494,4.494,0,0,1-2.9-.924,3.486,3.486,0,0,1-1.152-2.892,3.39,3.39,0,0,1,1.512-2.964,8.771,8.771,0,0,1,4.656-1.14l2.184-.072V-8.52a2.91,2.91,0,0,0-.7-2.232,2.848,2.848,0,0,0-1.968-.624,6.105,6.105,0,0,0-1.92.3,13.753,13.753,0,0,0-1.7.684l-.648-1.584a9.667,9.667,0,0,1,1.992-.78A8.823,8.823,0,0,1,211.632-13.08Zm.624,6.864a6.394,6.394,0,0,0-3.324.768,2.207,2.207,0,0,0-.924,1.9,1.866,1.866,0,0,0,.66,1.584,2.709,2.709,0,0,0,1.692.5,4.093,4.093,0,0,0,2.712-.9,3.4,3.4,0,0,0,1.08-2.772V-6.288ZM222.336,0h-2.112V-18.24h2.112Z" transform="translate(1216 1011)" fill="#0f0f0f"/>
    <path id="Path_134" data-name="Path 134" d="M9.672-15.48a5.42,5.42,0,0,0-4.344,1.848A7.529,7.529,0,0,0,3.744-8.568,7.911,7.911,0,0,0,5.22-3.516a5.31,5.31,0,0,0,4.428,1.86,11.4,11.4,0,0,0,2.136-.192,19.62,19.62,0,0,0,1.968-.48V-.456a10.472,10.472,0,0,1-1.98.528A15.23,15.23,0,0,1,9.336.24,8.186,8.186,0,0,1,4.968-.84,6.649,6.649,0,0,1,2.34-3.912a11.55,11.55,0,0,1-.876-4.68,10.469,10.469,0,0,1,.948-4.572,7.134,7.134,0,0,1,2.8-3.1A8.529,8.529,0,0,1,9.7-17.376a10.449,10.449,0,0,1,4.728,1.008l-.864,1.824a13.616,13.616,0,0,0-1.764-.648A7.451,7.451,0,0,0,9.672-15.48Zm18.72,9.024a7.013,7.013,0,0,1-1.62,4.944A5.675,5.675,0,0,1,22.392.24a5.9,5.9,0,0,1-3.036-.78,5.432,5.432,0,0,1-2.1-2.28,7.9,7.9,0,0,1-.768-3.636,6.956,6.956,0,0,1,1.608-4.92A5.676,5.676,0,0,1,22.464-13.1a5.99,5.99,0,0,1,3.084.78,5.386,5.386,0,0,1,2.088,2.256A7.856,7.856,0,0,1,28.392-6.456Zm-9.72,0a6.368,6.368,0,0,0,.9,3.612A3.212,3.212,0,0,0,22.44-1.512,3.218,3.218,0,0,0,25.3-2.844a6.3,6.3,0,0,0,.912-3.612,6.128,6.128,0,0,0-.912-3.576,3.277,3.277,0,0,0-2.88-1.3,3.214,3.214,0,0,0-2.856,1.3A6.254,6.254,0,0,0,18.672-6.456ZM45.84-13.1A4.349,4.349,0,0,1,49.1-11.988a5.065,5.065,0,0,1,1.08,3.612V0H48.1V-8.28q0-3.048-2.616-3.048a3.119,3.119,0,0,0-2.676,1.08A5.21,5.21,0,0,0,42-7.1V0H39.912V-8.28q0-3.048-2.64-3.048a2.907,2.907,0,0,0-2.688,1.2,6.6,6.6,0,0,0-.744,3.456V0H31.728V-12.864h1.7l.312,1.752h.12a3.753,3.753,0,0,1,1.62-1.5,4.935,4.935,0,0,1,2.172-.492q3.024,0,3.936,2.16h.12a3.991,3.991,0,0,1,1.764-1.632A5.46,5.46,0,0,1,45.84-13.1Zm22.44,0a4.349,4.349,0,0,1,3.264,1.116,5.065,5.065,0,0,1,1.08,3.612V0H70.536V-8.28q0-3.048-2.616-3.048a3.119,3.119,0,0,0-2.676,1.08,5.21,5.21,0,0,0-.8,3.144V0H62.352V-8.28q0-3.048-2.64-3.048a2.907,2.907,0,0,0-2.688,1.2,6.6,6.6,0,0,0-.744,3.456V0H54.168V-12.864h1.7l.312,1.752h.12a3.753,3.753,0,0,1,1.62-1.5A4.935,4.935,0,0,1,60.1-13.1q3.024,0,3.936,2.16h.12a3.991,3.991,0,0,1,1.764-1.632A5.46,5.46,0,0,1,68.28-13.1Zm19.08.24V0H85.632L85.32-1.7h-.1A3.665,3.665,0,0,1,83.5-.228,5.963,5.963,0,0,1,81.144.24a4.915,4.915,0,0,1-3.5-1.116A4.722,4.722,0,0,1,76.464-4.44v-8.424H78.6v8.28q0,3.072,2.856,3.072a3.35,3.35,0,0,0,2.964-1.2,6.059,6.059,0,0,0,.828-3.456v-6.7Zm10.272-.24a4.877,4.877,0,0,1,3.48,1.116,4.8,4.8,0,0,1,1.176,3.612V0H100.2V-8.232q0-3.1-2.88-3.1a3.316,3.316,0,0,0-2.952,1.2,6.129,6.129,0,0,0-.816,3.456V0H91.44V-12.864h1.7l.312,1.752h.12a3.8,3.8,0,0,1,1.728-1.5A5.656,5.656,0,0,1,97.632-13.1Zm9.72-4.584a1.26,1.26,0,0,1,.852.324,1.284,1.284,0,0,1,.372,1.02,1.29,1.29,0,0,1-.372,1.008,1.235,1.235,0,0,1-.852.336,1.252,1.252,0,0,1-.888-.336,1.314,1.314,0,0,1-.36-1.008,1.308,1.308,0,0,1,.36-1.02A1.279,1.279,0,0,1,107.352-17.688Zm1.032,4.824V0h-2.112V-12.864ZM116.76-1.488a5.981,5.981,0,0,0,.984-.084,6.5,6.5,0,0,0,.816-.18V-.144a3.591,3.591,0,0,1-.96.276,7.038,7.038,0,0,1-1.2.108,4.873,4.873,0,0,1-1.86-.348,2.877,2.877,0,0,1-1.38-1.212,4.659,4.659,0,0,1-.528-2.424v-7.488h-1.824V-12.24l1.848-.84.84-2.736h1.248v2.952h3.72v1.632h-3.72v7.44a2.371,2.371,0,0,0,.564,1.74A1.965,1.965,0,0,0,116.76-1.488Zm2.352-11.376h2.256l2.784,7.32q.36.96.648,1.836a12.544,12.544,0,0,1,.432,1.668h.1q.144-.6.456-1.572t.648-1.956l2.616-7.3h2.28l-5.544,14.64a7.994,7.994,0,0,1-1.74,2.9,3.948,3.948,0,0,1-2.94,1.08A7.421,7.421,0,0,1,120.1,5.7q-.432-.06-.744-.132V3.888q.264.048.636.1a6.1,6.1,0,0,0,.78.048,2.55,2.55,0,0,0,1.788-.624,4.153,4.153,0,0,0,1.068-1.656l.672-1.7Zm30.5,8.28a4.224,4.224,0,0,1-1.656,3.552A7.148,7.148,0,0,1,143.5.24a15.354,15.354,0,0,1-2.664-.216,8.164,8.164,0,0,1-2.04-.6V-2.64a12.813,12.813,0,0,0,2.148.7,11.192,11.192,0,0,0,2.652.312,4.713,4.713,0,0,0,2.892-.744,2.4,2.4,0,0,0,.972-2.016,2.622,2.622,0,0,0-.36-1.416,3.344,3.344,0,0,0-1.236-1.068,16.168,16.168,0,0,0-2.436-1.044,8.635,8.635,0,0,1-3.3-1.944,4.327,4.327,0,0,1-1.116-3.144,3.913,3.913,0,0,1,.7-2.34,4.468,4.468,0,0,1,1.932-1.5,7.185,7.185,0,0,1,2.844-.528,11.844,11.844,0,0,1,2.592.264,11.149,11.149,0,0,1,2.136.7l-.672,1.848a12.719,12.719,0,0,0-1.932-.648,8.826,8.826,0,0,0-2.172-.264,3.7,3.7,0,0,0-2.424.684,2.247,2.247,0,0,0-.816,1.812,2.67,2.67,0,0,0,.36,1.44,3.158,3.158,0,0,0,1.176,1.032,17.112,17.112,0,0,0,2.208.984,14.492,14.492,0,0,1,2.556,1.188,4.608,4.608,0,0,1,1.584,1.524A4.231,4.231,0,0,1,149.616-4.584Zm8.136-8.52a5.385,5.385,0,0,1,2.844.72,4.729,4.729,0,0,1,1.824,2.028,6.923,6.923,0,0,1,.636,3.06v1.272h-8.808A4.854,4.854,0,0,0,155.364-2.7a3.894,3.894,0,0,0,2.988,1.14,9.333,9.333,0,0,0,2.172-.228,12.25,12.25,0,0,0,1.956-.66V-.6a10.019,10.019,0,0,1-1.944.636,11.1,11.1,0,0,1-2.28.2A6.79,6.79,0,0,1,155.028-.5a5.18,5.18,0,0,1-2.184-2.22,7.653,7.653,0,0,1-.78-3.612,8.488,8.488,0,0,1,.708-3.624,5.381,5.381,0,0,1,1.992-2.328A5.45,5.45,0,0,1,157.752-13.1Zm-.024,1.728a3.053,3.053,0,0,0-2.388.972A4.582,4.582,0,0,0,154.3-7.7h6.552a4.51,4.51,0,0,0-.768-2.652A2.715,2.715,0,0,0,157.728-11.376ZM172.32-13.1q.36,0,.78.036a5.309,5.309,0,0,1,.732.108l-.264,1.944q-.312-.072-.684-.12a5.541,5.541,0,0,0-.708-.048,3.426,3.426,0,0,0-1.848.54,3.889,3.889,0,0,0-1.38,1.512,4.767,4.767,0,0,0-.516,2.268V0H166.32V-12.864h1.728l.24,2.352h.1a6.477,6.477,0,0,1,1.608-1.824A3.672,3.672,0,0,1,172.32-13.1ZM179.064,0l-4.872-12.864h2.256l2.736,7.584q.192.528.408,1.176t.384,1.236a10.171,10.171,0,0,1,.24,1h.1q.1-.408.276-1.008T181-4.128q.228-.648.4-1.152l2.736-7.584h2.256L181.488,0ZM189.5-17.688a1.26,1.26,0,0,1,.852.324,1.284,1.284,0,0,1,.372,1.02,1.29,1.29,0,0,1-.372,1.008A1.235,1.235,0,0,1,189.5-15a1.252,1.252,0,0,1-.888-.336,1.314,1.314,0,0,1-.36-1.008,1.307,1.307,0,0,1,.36-1.02A1.279,1.279,0,0,1,189.5-17.688Zm1.032,4.824V0h-2.112V-12.864Zm9.24,13.1a6.458,6.458,0,0,1-3.036-.7,4.876,4.876,0,0,1-2.088-2.16A8.138,8.138,0,0,1,193.9-6.36a8.207,8.207,0,0,1,.792-3.864,5.016,5.016,0,0,1,2.148-2.184,6.657,6.657,0,0,1,3.084-.7,8.661,8.661,0,0,1,1.9.2,6.6,6.6,0,0,1,1.488.492l-.648,1.752a12.489,12.489,0,0,0-1.344-.408,5.953,5.953,0,0,0-1.44-.192q-3.792,0-3.792,4.872A5.878,5.878,0,0,0,197-2.82a3.213,3.213,0,0,0,2.748,1.236,7.2,7.2,0,0,0,1.86-.216,9.12,9.12,0,0,0,1.476-.528V-.456A6.038,6.038,0,0,1,201.66.06,8.5,8.5,0,0,1,199.776.24ZM211.1-13.1a5.385,5.385,0,0,1,2.844.72,4.729,4.729,0,0,1,1.824,2.028,6.923,6.923,0,0,1,.636,3.06v1.272H207.6A4.854,4.854,0,0,0,208.716-2.7,3.894,3.894,0,0,0,211.7-1.56a9.333,9.333,0,0,0,2.172-.228,12.25,12.25,0,0,0,1.956-.66V-.6a10.019,10.019,0,0,1-1.944.636,11.1,11.1,0,0,1-2.28.2A6.79,6.79,0,0,1,208.38-.5a5.18,5.18,0,0,1-2.184-2.22,7.653,7.653,0,0,1-.78-3.612,8.488,8.488,0,0,1,.708-3.624,5.381,5.381,0,0,1,1.992-2.328A5.45,5.45,0,0,1,211.1-13.1Zm-.024,1.728a3.053,3.053,0,0,0-2.388.972,4.582,4.582,0,0,0-1.044,2.7H214.2a4.51,4.51,0,0,0-.768-2.652A2.715,2.715,0,0,0,211.08-11.376Z" transform="translate(485 675)" fill="#0f0f0f"/>
  </g>
</svg>
