<svg xmlns="http://www.w3.org/2000/svg" xmlns:xlink="http://www.w3.org/1999/xlink" width="45.653" height="42.497" viewBox="0 0 45.653 42.497">
  <defs>
    <clipPath id="clip-path">
      <rect id="Rectangle_88" data-name="Rectangle 88" width="45.653" height="42.497" fill="none" stroke="#fff" stroke-width="1"/>
    </clipPath>
  </defs>
  <g id="Group_14" data-name="Group 14" transform="translate(0 0)">
    <g id="Group_12" data-name="Group 12" transform="translate(0 0)" clip-path="url(#clip-path)">
      <path id="Path_98" data-name="Path 98" d="M37.622,43.42l9.255-9.255a2.136,2.136,0,0,0,0-3.013l-2.26-2.26a2.136,2.136,0,0,0-3.013,0l-9.255,9.255a2.138,2.138,0,0,0,0,3.013l2.26,2.26A2.138,2.138,0,0,0,37.622,43.42Z" transform="translate(-2.758 -2.458)" fill="none" stroke="#fff" stroke-linecap="round" stroke-linejoin="round" stroke-width="2"/>
      <path id="Path_99" data-name="Path 99" d="M30.886,38.255,41.271,27.87,38.5,23.009a103,103,0,0,1-8.45,8.385A34.7,34.7,0,0,1,21.4,36.225c1.417.989,6.5,2.034,9.545,2.091Z" transform="translate(-1.86 -2)" fill="none" stroke="#fff" stroke-linecap="round" stroke-linejoin="round" stroke-width="2"/>
      <path id="Path_100" data-name="Path 100" d="M10.877,42.4,1.622,33.144a2.136,2.136,0,0,1,0-3.013l2.26-2.26a2.138,2.138,0,0,1,3.013,0l9.255,9.255a2.138,2.138,0,0,1,0,3.013L13.89,42.4A2.136,2.136,0,0,1,10.877,42.4Z" transform="translate(-0.087 -2.369)" fill="none" stroke="#fff" stroke-linecap="round" stroke-linejoin="round" stroke-width="2"/>
      <path id="Path_101" data-name="Path 101" d="M5.44,17.26h0a2.37,2.37,0,0,0,0,3.343l2.107,2.108a2.364,2.364,0,0,0,3.344-3.344L8.783,17.26A2.37,2.37,0,0,0,5.44,17.26Z" transform="translate(-0.413 -1.44)" fill="none" stroke="#fff" stroke-linecap="round" stroke-linejoin="round" stroke-width="2"/>
      <path id="Path_102" data-name="Path 102" d="M8.163,12.661h0a2.37,2.37,0,0,0,0,3.343l3.319,3.319a2.364,2.364,0,0,0,3.343-3.343l-3.319-3.319A2.37,2.37,0,0,0,8.163,12.661Z" transform="translate(-0.65 -1.041)" fill="none" stroke="#fff" stroke-linecap="round" stroke-linejoin="round" stroke-width="2"/>
      <path id="Path_103" data-name="Path 103" d="M10.887,8.062h0a2.37,2.37,0,0,0,0,3.343l3.923,3.924a2.364,2.364,0,0,0,3.344-3.343L14.23,8.062A2.37,2.37,0,0,0,10.887,8.062Z" transform="translate(-0.887 -0.641)" fill="none" stroke="#fff" stroke-linecap="round" stroke-linejoin="round" stroke-width="2"/>
      <path id="Path_104" data-name="Path 104" d="M14.548,4.4h0a2.37,2.37,0,0,0,0,3.343l4.53,4.531A2.364,2.364,0,0,0,22.422,8.93L17.891,4.4A2.37,2.37,0,0,0,14.548,4.4Z" transform="translate(-1.205 -0.323)" fill="none" stroke="#fff" stroke-linecap="round" stroke-linejoin="round" stroke-width="2"/>
      <path id="Path_105" data-name="Path 105" d="M37.833,16.664a2.672,2.672,0,0,0-3.766,0l1.507-1.507a2.663,2.663,0,0,0-3.766-3.766l-.455.455,1.961-1.961a2.672,2.672,0,0,0,0-3.766,3.567,3.567,0,0,0-2.834-.932L27.618,8.047h0l2.5-2.5a2.672,2.672,0,0,0,0-3.766h0a2.671,2.671,0,0,0-3.765,0S23.346,4.2,20.1,6.985L21.81,8.7a2.364,2.364,0,1,1-3.343,3.343l-.605-.605a2.364,2.364,0,0,1-3.343,3.343l.25.251a2.364,2.364,0,0,1-3.343,3.343l-.355-.354a2.358,2.358,0,0,1-2.825,3.723c-.873,1.894-1.41,3.287-1.41,3.287L17.222,35.41s7.441-2.448,11.56-5.929a109.41,109.41,0,0,0,9.05-9.05A2.672,2.672,0,0,0,37.833,16.664Z" transform="translate(-0.594 -0.087)" fill="none" stroke="#fff" stroke-linecap="round" stroke-linejoin="round" stroke-width="2"/>
      <path id="Path_106" data-name="Path 106" d="M24.715,1H18a4.812,4.812,0,0,0,4.47,4.791C24.182,4.346,25.7,3.1,26.56,2.4A1.931,1.931,0,0,0,24.715,1Z" transform="translate(-1.565 -0.087)" fill="none" stroke="#fff" stroke-linecap="round" stroke-linejoin="round" stroke-width="2"/>
    </g>
  </g>
</svg>
