<svg xmlns="http://www.w3.org/2000/svg" xmlns:xlink="http://www.w3.org/1999/xlink" width="53.347" height="46.832" viewBox="0 0 53.347 46.832">
  <defs>
    <clipPath id="clip-path">
      <rect id="Rectangle_82" data-name="Rectangle 82" width="37.775" height="41.231" fill="#fff"/>
    </clipPath>
  </defs>
  <g id="Group_5" data-name="Group 5" transform="translate(0 5.601)">
    <g id="Group_4" data-name="Group 4" clip-path="url(#clip-path)">
      <path id="Path_68" data-name="Path 68" d="M181.975,27.394a.808.808,0,0,1-.773-.573l-7.564-24.88a.808.808,0,0,1,.538-1.007l2.959-.9a.807.807,0,0,1,1.007.538l7.564,24.88a.807.807,0,0,1-.538,1.007l-2.959.9a.809.809,0,0,1-.235.035m-6.557-25.15,7.095,23.335,1.414-.43L176.832,1.814Z" transform="translate(-148.119 0)" fill="#fff"/>
      <path id="Path_69" data-name="Path 69" d="M7.778,34.7a6.874,6.874,0,0,1-2.948-.6A9.176,9.176,0,0,1,.061,25.043,6.786,6.786,0,0,1,3.188,20.27c2.451-1.707,5.324-2.3,8.1-2.869l.256-.053A20.329,20.329,0,0,0,25.056,7.636a.807.807,0,1,1,1.446.719A21.669,21.669,0,0,1,11.872,18.93l-.257.053c-2.618.539-5.326,1.1-7.5,2.612a5.178,5.178,0,0,0-2.448,3.648,7.585,7.585,0,0,0,3.853,7.4c2.241,1.052,5.583,0,8.268-.843.6-.189,1.167-.367,1.694-.514a29.374,29.374,0,0,1,18.708.692.807.807,0,0,1-.662,1.473,28.293,28.293,0,0,0-17.613-.61c-.5.14-1.056.314-1.643.5A22.694,22.694,0,0,1,7.778,34.7" transform="translate(0 -6.132)" fill="#fff"/>
      <path id="Path_70" data-name="Path 70" d="M53.057,206.995a4.388,4.388,0,0,1-4.1-3.194l-2.33-7.664a.807.807,0,0,1,1.545-.47l2.33,7.664a2.514,2.514,0,1,0,4.779-1.453l0-.015c-.012-.041-1.166-4.11-1.9-6.537a.807.807,0,1,1,1.545-.47c.727,2.393,1.855,6.365,1.91,6.559a4.276,4.276,0,0,1-2.652,5.413,3.851,3.851,0,0,1-1.119.166" transform="translate(-39.752 -165.764)" fill="#fff"/>
      <path id="Path_71" data-name="Path 71" d="M216.5,65.169a.807.807,0,0,1-.468-1.466,4,4,0,0,0-2.41-7.266.807.807,0,1,1-.038-1.614l.133,0a5.619,5.619,0,0,1,3.251,10.2.8.8,0,0,1-.467.149" transform="translate(-181.56 -46.774)" fill="#fff"/>
      <path id="Path_72" data-name="Path 72" d="M60.831,102.694a.808.808,0,0,1-.772-.573L56.122,89.173a.807.807,0,0,1,1.545-.47L61.6,101.652a.808.808,0,0,1-.773,1.042" transform="translate(-47.854 -75.193)" fill="#fff"/>
      <path id="Path_73" data-name="Path 73" d="M89.29,94.042a.808.808,0,0,1-.772-.573L84.581,80.521a.807.807,0,1,1,1.545-.47L90.063,93a.808.808,0,0,1-.773,1.042" transform="translate(-72.135 -67.812)" fill="#fff"/>
    </g>
    <path id="Path_54" data-name="Path 54" d="M374.144,176.572h-7.777a.85.85,0,0,0,0,1.7h7.777a.85.85,0,0,0,0-1.7Z" transform="translate(-321.648 -162.155)" fill="#fff"/>
    <path id="Path_55" data-name="Path 55" d="M341.155,104.544a.85.85,0,0,0,1.13.411l8.606-4.013a.85.85,0,1,0-.719-1.541l-8.606,4.013A.85.85,0,0,0,341.155,104.544Z" transform="translate(-299.976 -93.661)" fill="#fff"/>
    <path id="Path_56" data-name="Path 56" d="M312.771,45.656a.85.85,0,0,0,1.2-.1l6.388-7.613a.85.85,0,0,0-1.3-1.093l-6.388,7.613A.85.85,0,0,0,312.771,45.656Z" transform="translate(-274.612 -38)" fill="#fff"/>
    <path id="Path_57" data-name="Path 57" d="M278.4,10.5a.85.85,0,0,0,1.041-.6L281.8,1.069a.85.85,0,0,0-1.643-.44L277.794,9.46A.85.85,0,0,0,278.4,10.5Z" transform="translate(-243.844 -5.599)" fill="#fff"/>
  </g>
</svg>
