<svg xmlns="http://www.w3.org/2000/svg" width="44.438" height="42.249" viewBox="0 0 44.438 42.249">
  <g id="Group_8" data-name="Group 8" transform="translate(-4.353 -2.747)">
    <g id="Group_15" data-name="Group 15" transform="translate(4.853 3.247)">
      <path id="Path_74" data-name="Path 74" d="M100.06,70.058H75.118a.722.722,0,0,1-.722-.722V62.37a.722.722,0,0,1,.722-.722H100.06a.722.722,0,0,1,.722.722v6.966a.722.722,0,0,1-.722.722M75.84,68.614h23.5V63.092H75.84Z" transform="translate(-69.882 -57.07)" fill="#3c5db7" stroke="#3c5db7" stroke-width="1"/>
      <path id="Path_75" data-name="Path 75" d="M101.372,149H76.636a.722.722,0,0,1,0-1.444h24.736a.722.722,0,1,1,0,1.444" transform="translate(-71.201 -131.703)" fill="#3c5db7" stroke="#3c5db7" stroke-width="1"/>
      <path id="Path_76" data-name="Path 76" d="M94.661,181.869H76.636a.722.722,0,0,1,0-1.444H94.661a.722.722,0,1,1,0,1.444" transform="translate(-71.201 -160.257)" fill="#3c5db7" stroke="#3c5db7" stroke-width="1"/>
      <path id="Path_77" data-name="Path 77" d="M88.37,221.144H78.152a.722.722,0,0,1-.722-.722v-3.383a.722.722,0,0,1,.722-.722H88.37a.722.722,0,0,1,.722.722v3.383a.722.722,0,0,1-.722.722m-9.5-1.444h8.774v-1.94H78.874Z" transform="translate(-72.518 -191.438)" fill="#3c5db7" stroke="#3c5db7" stroke-width="1"/>
      <path id="Path_78" data-name="Path 78" d="M196,221.144H185.783a.722.722,0,0,1-.722-.722v-3.383a.722.722,0,0,1,.722-.722H196a.722.722,0,0,1,.722.722v3.383a.722.722,0,0,1-.722.722m-9.5-1.444h8.774v-1.94H186.5Z" transform="translate(-166.022 -191.438)" fill="#3c5db7" stroke="#3c5db7" stroke-width="1"/>
      <path id="Path_79" data-name="Path 79" d="M87.928,283.642H78.152a.722.722,0,1,1,0-1.444h9.776a.722.722,0,1,1,0,1.444" transform="translate(-72.518 -248.672)" fill="#3c5db7" stroke="#3c5db7" stroke-width="1"/>
      <path id="Path_80" data-name="Path 80" d="M197.41,283.642h-9.776a.722.722,0,1,1,0-1.444h9.776a.722.722,0,1,1,0,1.444" transform="translate(-167.63 -248.672)" fill="#3c5db7" stroke="#3c5db7" stroke-width="1"/>
      <path id="Path_81" data-name="Path 81" d="M40.728,57.857a.722.722,0,0,1-.722-.722V27.492a.722.722,0,0,1,.722-.722H74.563a.722.722,0,0,1,.722.722V56.136a.722.722,0,0,1-1.444,0V28.214H41.45V57.135a.722.722,0,0,1-.722.722" transform="translate(-40.006 -26.77)" fill="#3c5db7" stroke="#3c5db7" stroke-width="1"/>
      <path id="Path_82" data-name="Path 82" d="M79.24,263H44.113a4.112,4.112,0,0,1-4.107-4.107v-6.963a.722.722,0,1,1,1.444,0v6.963a2.666,2.666,0,0,0,2.663,2.663H79.24a.722.722,0,1,1,0,1.444" transform="translate(-40.006 -221.747)" fill="#3c5db7" stroke="#3c5db7" stroke-width="1"/>
      <path id="Path_83" data-name="Path 83" d="M306.756,120.713h-5.971a.722.722,0,0,1,0-1.444h5.971a.722.722,0,0,1,0,1.444" transform="translate(-265.93 -107.128)" fill="#3c5db7" stroke="#3c5db7" stroke-width="1"/>
      <path id="Path_84" data-name="Path 84" d="M332.357,144.994a.722.722,0,0,1-.722-.722V122.329a1.43,1.43,0,1,0-2.835,0v13.185a.722.722,0,1,1-1.444,0V122.329a2.868,2.868,0,1,1,5.723,0v21.943a.722.722,0,0,1-.722.722" transform="translate(-289.641 -107.128)" fill="#3c5db7" stroke="#3c5db7" stroke-width="1"/>
      <path id="Path_85" data-name="Path 85" d="M308.319,231.049h-2.985a.722.722,0,1,1,0-1.444h2.985a.722.722,0,1,1,0,1.444" transform="translate(-269.882 -202.982)" fill="#3c5db7" stroke="#3c5db7" stroke-width="1"/>
      <path id="Path_86" data-name="Path 86" d="M303.061,294.814a5.013,5.013,0,0,1-4.835-5.051v-.3a.942.942,0,0,0-.038-.236,1.667,1.667,0,0,1-.023-.847.722.722,0,1,1,1.4.34c-.008.032-.009.036.022.165a2.286,2.286,0,0,1,.079.578v.3a3.6,3.6,0,0,0,3.391,3.607,2.983,2.983,0,0,0,3.074-2.257.722.722,0,1,1,1.4.364,4.419,4.419,0,0,1-4.471,3.336" transform="translate(-264.242 -253.565)" fill="#3c5db7" stroke="#3c5db7" stroke-width="1"/>
      <path id="Path_87" data-name="Path 87" d="M297.89,268.244a.718.718,0,0,1-.288-.06.74.74,0,0,1-.455-.429.724.724,0,0,1,.211-.822.741.741,0,0,1,1.3.63.978.978,0,0,1-.127.287c-.01.02-.021.039-.033.058a.721.721,0,0,1-.611.337" transform="translate(-263.352 -235.171)" fill="#3c5db7" stroke="#3c5db7" stroke-width="1"/>
    </g>
  </g>
</svg>
